<svg height="512pt" viewBox="-81 0 512 512" width="512pt" xmlns="http://www.w3.org/2000/svg"><path d="m333.828125 151.8125c-1.035156 0-2.074219-.101562-3.101563-.316406l-143.875-29.699219c-7.136718-1.472656-12.253906-7.753906-12.253906-15.035156v-58.078125c0-7.285156 5.117188-13.566406 12.253906-15.039063l143.875-29.699219c4.515626-.933593 9.222657.21875 12.800782 3.132813 3.578125 2.917969 5.65625 7.289063 5.65625 11.90625v117.472656c0 4.617188-2.078125 8.988281-5.65625 11.90625-2.765625 2.253907-6.195313 3.449219-9.699219 3.449219zm0 0" fill="#23272b"/><path d="m15.355469 247.332031c-8.480469 0-15.355469-6.875-15.355469-15.355469 0-90.726562 73.8125-164.542968 164.542969-164.542968 8.480469 0 15.351562 6.875 15.351562 15.355468 0 8.480469-6.871093 15.355469-15.351562 15.355469-73.796875 0-133.832031 60.035157-133.832031 133.832031 0 8.480469-6.875 15.355469-15.355469 15.355469zm0 0" fill="#555a66"/><path d="m164.542969 0c-22.480469 0-40.769531 18.289062-40.769531 40.765625v101.421875c0 8.480469 6.875 15.355469 15.355468 15.355469h50.824219c8.480469 0 15.355469-6.875 15.355469-15.355469v-101.421875c0-22.476563-18.289063-40.765625-40.765625-40.765625zm0 0" fill="#dce1eb"/><path d="m164.542969 0v157.542969h25.410156c8.480469 0 15.355469-6.875 15.355469-15.355469v-101.421875c0-22.476563-18.289063-40.765625-40.765625-40.765625zm0 0" fill="#bec3d2"/><path d="m228.933594 512h-128.785156c-22.46875 0-40.753907-18.28125-40.753907-40.753906v-239.269532c0-57.976562 47.167969-105.144531 105.144531-105.144531 57.976563 0 105.144532 47.167969 105.144532 105.144531v239.273438c0 22.46875-18.28125 40.75-40.75 40.75zm0 0" fill="#ff7d81"/><path d="m164.542969 126.832031v385.167969h64.390625c22.472656 0 40.753906-18.28125 40.753906-40.753906v-239.269532c-.003906-57.976562-47.167969-105.144531-105.144531-105.144531zm0 0" fill="#ff3da8"/><path d="m269.683594 418.765625h-210.277344v-175.574219h210.277344zm0 0" fill="#fff8ab"/><path d="m164.539062 243.191406h105.144532v175.574219h-105.144532zm0 0" fill="#fff04a"/></svg>