<svg height="512pt" viewBox="-100 0 512 512" width="512pt" xmlns="http://www.w3.org/2000/svg"><path d="m155.554688 512c-85.773438 0-155.554688-69.78125-155.554688-155.554688 0-34.371093 24.089844-103.714843 71.597656-206.09375 34.863282-75.132812 70.203125-141.640624 70.558594-142.304687 2.632812-4.953125 7.785156-8.046875 13.398438-8.046875 5.609374 0 10.761718 3.09375 13.394531 8.046875.355469.664063 35.695312 67.171875 70.558593 142.304687 47.507813 102.378907 71.597657 171.722657 71.597657 206.09375 0 85.773438-69.78125 155.554688-155.550781 155.554688zm0 0" fill="#a5f6ff"/><path d="m168.949219 8.046875c-2.632813-4.953125-7.785157-8.046875-13.394531-8.046875-.628907 0-1.25.0429688-1.863282.121094v511.855468c.621094.007813 1.238282.023438 1.863282.023438 85.769531 0 155.550781-69.78125 155.550781-155.554688 0-34.371093-24.089844-103.714843-71.597657-206.09375-34.863281-75.132812-70.203124-141.640624-70.558593-142.304687zm0 0" fill="#38ebff"/></svg>