<svg height="512pt" viewBox="-121 0 512 512" width="512pt" xmlns="http://www.w3.org/2000/svg"><path d="m205.800781 512h-141.28125c-8.328125 0-15.078125-6.75-15.078125-15.078125v-43.730469c0-8.328125 6.75-15.078125 15.078125-15.078125h141.28125c8.328125 0 15.078125 6.75 15.078125 15.078125v43.730469c0 8.328125-6.75 15.078125-15.078125 15.078125zm0 0" fill="#afb4c8"/><path d="m205.800781 438.113281h-70.644531v73.886719h70.644531c8.324219 0 15.078125-6.75 15.078125-15.078125v-43.730469c0-8.328125-6.75-15.078125-15.078125-15.078125zm0 0" fill="#7e8596"/><path d="m205.800781 112.730469h-141.28125c-8.328125 0-15.078125-6.75-15.078125-15.078125v-64.1875c0-18.453125 15.011719-33.464844 33.464844-33.464844h104.507812c18.453126 0 33.464844 15.011719 33.464844 33.464844v64.1875c0 8.328125-6.75 15.078125-15.078125 15.078125zm0 0" fill="#afb4c8"/><path d="m187.414062 0h-52.257812v112.730469h70.644531c8.324219 0 15.078125-6.75 15.078125-15.078125v-64.1875c0-18.453125-15.011718-33.464844-33.464844-33.464844zm0 0" fill="#7e8596"/><path d="m154 31.234375h-35.847656c-8.328125 0-15.078125 6.75-15.078125 15.078125s6.75 15.078125 15.078125 15.078125h2.847656v26.207031c0 8.328125 6.75 15.078125 15.078125 15.078125 8.324219 0 15.078125-6.75 15.078125-15.078125v-26.207031h2.84375c8.328125 0 15.078125-6.75 15.078125-15.078125s-6.75-15.078125-15.078125-15.078125zm0 0" fill="#555a66"/><path d="m154 31.234375h-18.84375v71.394531c.304688.019532.609375.046875.921875.046875 8.324219 0 15.078125-6.75 15.078125-15.078125v-26.207031h2.84375c8.328125 0 15.078125-6.75 15.078125-15.078125s-6.75-15.078125-15.078125-15.078125zm0 0" fill="#23272b"/><path d="m221.03125 468.269531h-171.742188c-27.179687 0-49.289062-22.109375-49.289062-49.289062v-287.117188c0-27.179687 22.109375-49.292969 49.289062-49.292969h171.742188c27.175781 0 49.289062 22.113282 49.289062 49.292969v287.117188c0 27.175781-22.113281 49.289062-49.289062 49.289062zm0 0" fill="#4a7aff"/><path d="m221.03125 82.574219h-85.875v385.695312h85.875c27.175781 0 49.289062-22.109375 49.289062-49.289062v-287.117188c0-27.179687-22.113281-49.289062-49.289062-49.289062zm0 0" fill="#0160ad"/><path d="m135.160156 389.152344c-40.019531 0-72.582031-32.558594-72.582031-72.582032 0-5.734374 0-23.179687 30.152344-88.160156 14.386719-30.996094 28.527343-57.609375 29.121093-58.726562 2.617188-4.921875 7.738282-7.996094 13.308594-7.996094 5.574219 0 10.695313 3.074219 13.3125 7.992188.59375 1.117187 14.734375 27.734374 29.121094 58.730468 30.152344 64.980469 30.152344 82.425782 30.152344 88.15625 0 40.027344-32.5625 72.585938-72.585938 72.585938zm0 0" fill="#ff7d81"/><path d="m148.472656 169.683594c-2.617187-4.921875-7.738281-7.996094-13.308594-7.996094-.003906 0-.003906 0-.007812 0v227.464844h.007812c40.019532 0 72.582032-32.558594 72.582032-72.582032 0-5.734374 0-23.179687-30.152344-88.160156-14.386719-30.996094-28.527344-57.609375-29.121094-58.726562zm0 0" fill="#ff3da8"/><path d="m135.160156 389.152344c-22.785156 0-41.328125-18.539063-41.328125-41.328125 0-16.480469 19.59375-55.074219 28.019531-70.902344 2.617188-4.917969 7.738282-7.992187 13.308594-7.992187 5.574219 0 10.695313 3.074218 13.3125 7.992187 8.421875 15.828125 28.019532 54.421875 28.019532 70.902344 0 22.789062-18.542969 41.328125-41.332032 41.328125zm0 0" fill="#fff8ab"/><path d="m135.160156 268.929688h-.003906v120.222656h.003906c22.789063 0 41.332032-18.539063 41.332032-41.328125 0-16.480469-19.597657-55.074219-28.019532-70.902344-2.617187-4.917969-7.738281-7.992187-13.3125-7.992187zm0 0" fill="#fff04a"/></svg>