<svg height="512pt" viewBox="0 -90 512 512" width="512pt" xmlns="http://www.w3.org/2000/svg"><path d="m496.800781 156.871094h-160.535156c-8.394531 0-15.199219-6.804688-15.199219-15.195313v-126.476562c0-8.394531 6.804688-15.199219 15.199219-15.199219h123.007813c29.074218 0 52.726562 23.652344 52.726562 52.726562v88.949219c0 8.390625-6.804688 15.195313-15.199219 15.195313zm0 0" fill="#4ab8f7"/><path d="m15.199219 203.640625c-2.617188 0-5.230469-.675781-7.574219-2.023437-4.71875-2.710938-7.625-7.734376-7.625-13.175782v-58.113281c0-71.863281 58.464844-130.328125 130.324219-130.328125h45.410156c8.394531 0 15.199219 6.804688 15.199219 15.199219v126.476562c0 8.390625-6.804688 15.195313-15.199219 15.195313h-45.976563c-19.75 0-39.207031 5.253906-56.269531 15.199218l-50.640625 29.503907c-2.363281 1.375-5.007812 2.066406-7.648437 2.066406zm0 0" fill="#38ebff"/><path d="m361.59375 156.871094h-211.1875v-156.871094h211.1875zm0 0" fill="#a5f6ff"/><path d="m256 0h105.59375v156.871094h-105.59375zm0 0" fill="#38ebff"/><path d="m435.566406 283.347656h-386.195312c-27.222656 0-49.371094-22.144531-49.371094-49.363281v-45.542969c0-5.40625 2.875-10.40625 7.546875-13.128906l50.640625-29.503906c21.699219-12.648438 46.449219-19.332032 71.570312-19.332032h367.042969c8.394531 0 15.199219 6.804688 15.199219 15.199219v65.238281c0 20.238282-7.832031 39.3125-22.050781 53.707032-14.175781 14.351562-33.070313 22.414062-53.222657 22.710937-.386718.011719-.773437.015625-1.160156.015625zm0 0" fill="#ff7d81"/><path d="m496.800781 126.476562h-240.800781v156.871094h179.566406c.386719 0 .773438-.003906 1.160156-.015625 20.152344-.296875 39.046876-8.359375 53.222657-22.710937 14.21875-14.394532 22.050781-33.46875 22.050781-53.707032v-65.238281c0-8.394531-6.804688-15.199219-15.199219-15.199219zm0 0" fill="#ff3da8"/><path d="m174.535156 268.152344c0 27.316406-22.144531 49.464844-49.460937 49.464844-27.316407 0-49.460938-22.148438-49.460938-49.464844s22.144531-49.460938 49.460938-49.460938c27.316406 0 49.460937 22.144532 49.460937 49.460938zm0 0" fill="#afb4c8"/><path d="m125.074219 332.8125c-35.652344 0-64.660157-29.007812-64.660157-64.660156s29.007813-64.660156 64.660157-64.660156c35.652343 0 64.660156 29.007812 64.660156 64.660156s-29.007813 64.660156-64.660156 64.660156zm0-98.925781c-18.894531 0-34.265625 15.371093-34.265625 34.265625 0 18.894531 15.371094 34.265625 34.265625 34.265625 18.890625 0 34.261719-15.371094 34.261719-34.265625 0-18.894532-15.371094-34.265625-34.261719-34.265625zm0 0" fill="#555a66"/><path d="m436.386719 268.152344c0 27.316406-22.144531 49.464844-49.460938 49.464844-27.316406 0-49.460937-22.148438-49.460937-49.464844s22.144531-49.460938 49.460937-49.460938c27.316407 0 49.460938 22.144532 49.460938 49.460938zm0 0" fill="#7e8596"/><path d="m386.925781 332.8125c-35.652343 0-64.660156-29.007812-64.660156-64.660156s29.007813-64.660156 64.660156-64.660156c35.652344 0 64.660157 29.007812 64.660157 64.660156s-29.007813 64.660156-64.660157 64.660156zm0-98.925781c-18.890625 0-34.261719 15.371093-34.261719 34.265625 0 18.894531 15.371094 34.265625 34.261719 34.265625 18.894531 0 34.265625-15.371094 34.265625-34.265625 0-18.894532-15.371094-34.265625-34.265625-34.265625zm0 0" fill="#23272b"/></svg>