<svg height="512pt" viewBox="-88 0 512 512.00034" width="512pt" xmlns="http://www.w3.org/2000/svg"><path d="m167.769531 512c-29.429687 0-53.375-23.945312-53.375-53.375v-15.5625c0-8.390625 6.804688-15.195312 15.195313-15.195312h76.363281c8.390625 0 15.195313 6.804687 15.195313 15.195312v15.5625c-.003907 29.429688-23.945313 53.375-53.378907 53.375zm0 0" fill="#afb4c8"/><path d="m205.953125 427.867188h-38.183594v84.132812c29.433594 0 53.375-23.945312 53.375-53.375v-15.5625c0-8.390625-6.800781-15.195312-15.191406-15.195312zm0 0" fill="#7e8596"/><path d="m210.941406 458.253906h-86.339844c-29.027343 0-52.640624-23.613281-52.640624-52.640625v-56.417969c0-8.390624 6.800781-15.191406 15.191406-15.191406h161.238281c8.390625 0 15.191406 6.800782 15.191406 15.191406v56.417969c0 29.027344-23.613281 52.640625-52.640625 52.640625zm0 0" fill="#555a66"/><path d="m71.960938 349.195312c0-24.757812-9.414063-48.410156-26.5-66.605468-29.886719-31.816406-46.027344-73.402344-45.445313-117.097656.59375-44.636719 18.664063-86.480469 50.886719-117.824219 32.214844-31.335938 74.492187-48.234375 119.179687-47.652344 44.328125.597656 85.910157 18.316406 117.078125 49.882813 31.199219 31.601562 48.378906 73.460937 48.378906 117.871093 0 42.929688-16.207031 83.769531-45.632812 115.007813-16.976562 18.019531-26.324219 41.605468-26.324219 66.417968zm0 0" fill="#fff8ab"/><path d="m248.386719 334.003906h-80.621094v124.25h43.175781c29.027344 0 52.640625-23.613281 52.640625-52.640625v-56.417969c0-8.390624-6.800781-15.191406-15.195312-15.191406zm0 0" fill="#23272b"/><path d="m170.085938.015625c-.773438-.01171875-1.546876-.0039062-2.316407-.0039062v349.1835932h95.8125c0-24.8125 9.347657-48.398437 26.324219-66.417968 29.429688-31.238282 45.636719-72.078125 45.636719-115.007813 0-44.410156-17.183594-86.269531-48.382813-117.871093-31.167968-31.566407-72.75-49.285157-117.074218-49.882813zm0 0" fill="#fff04a"/><path d="m222.621094 138.089844c-24.746094 0-44.871094 20.128906-44.871094 44.871094v14.484374h-19.957031v-14.484374c0-24.742188-20.128907-44.871094-44.871094-44.871094s-44.871094 20.128906-44.871094 44.871094c0 24.742187 20.128907 44.871093 44.871094 44.871093h14.484375v121.363281h30.386719v-121.363281h19.957031v121.363281h30.386719v-121.363281h14.484375c24.742187 0 44.867187-20.128906 44.867187-44.871093 0-24.742188-20.125-44.871094-44.867187-44.871094zm-124.183594 44.871094c0-7.988282 6.496094-14.484376 14.484375-14.484376s14.484375 6.5 14.484375 14.484376v14.484374h-14.484375c-7.988281 0-14.484375-6.5-14.484375-14.484374zm124.183594 14.484374h-14.484375v-14.484374c0-7.988282 6.496093-14.484376 14.484375-14.484376 7.984375 0 14.480468 6.5 14.480468 14.484376 0 7.984374-6.496093 14.484374-14.480468 14.484374zm0 0" fill="#ff7d81"/><path d="m222.621094 138.089844c-24.746094 0-44.871094 20.128906-44.871094 44.871094v14.484374h-9.984375v30.386719h9.984375v121.363281h30.386719v-121.363281h14.484375c24.742187 0 44.867187-20.128906 44.867187-44.871093 0-24.742188-20.125-44.871094-44.867187-44.871094zm0 59.355468h-14.484375v-14.484374c0-7.988282 6.496093-14.484376 14.484375-14.484376 7.984375 0 14.480468 6.5 14.480468 14.484376 0 7.984374-6.496093 14.484374-14.480468 14.484374zm0 0" fill="#ff3da8"/></svg>