<svg height="512pt" viewBox="-61 0 511 512" width="512pt" xmlns="http://www.w3.org/2000/svg"><path d="m239.269531 512h-88.515625c-8.332031 0-15.089844-6.753906-15.089844-15.089844v-146.457031c0-8.332031 6.757813-15.089844 15.089844-15.089844h88.515625c8.332031 0 15.089844 6.757813 15.089844 15.089844v146.457031c0 8.335938-6.757813 15.089844-15.089844 15.089844zm0 0" fill="#dce1eb"/><path d="m239.269531 335.363281h-44.257812v176.636719h44.257812c8.332031 0 15.089844-6.753906 15.089844-15.089844v-146.457031c0-8.332031-6.757813-15.089844-15.089844-15.089844zm0 0" fill="#bec3d2"/><path d="m195.011719 0c-107.253907 0-194.511719 87.257812-194.511719 194.511719 0 107.253906 87.257812 194.511719 194.511719 194.511719 107.253906 0 194.511719-87.257813 194.511719-194.511719 0-107.253907-87.257813-194.511719-194.511719-194.511719zm0 0" fill="#ff7d81"/><path d="m389.523438 194.511719c0-107.253907-87.257813-194.511719-194.511719-194.511719v389.023438c107.253906 0 194.511719-87.257813 194.511719-194.511719zm0 0" fill="#ff3da8"/><path d="m295.050781 236.957031h-200.078125c-8.332031 0-15.085937-6.757812-15.085937-15.089843v-54.714844c0-8.332032 6.753906-15.085938 15.085937-15.085938h200.078125c8.332031 0 15.085938 6.753906 15.085938 15.085938v54.714844c0 8.335937-6.753907 15.089843-15.085938 15.089843zm0 0" fill="#fff"/><path d="m295.050781 152.066406h-100.039062v84.890625h100.039062c8.332031 0 15.085938-6.753906 15.085938-15.089843v-54.710938c0-8.335938-6.753907-15.089844-15.085938-15.089844zm0 0" fill="#dce1eb"/></svg>