<svg height="511pt" viewBox="0 -120 511.99994 511" width="511pt" xmlns="http://www.w3.org/2000/svg"><path d="m15.195312 164.515625c-2.613281 0-5.226562-.675781-7.574218-2.023437-4.714844-2.710938-7.621094-7.734376-7.621094-13.171876v-32.105468c0-46.347656 37.707031-84.054688 84.054688-84.054688h29.601562c8.390625 0 15.195312 6.804688 15.195312 15.199219v75.675781c0 8.390625-6.804687 15.195313-15.195312 15.195313h-36.523438c-9.445312 0-18.746093 2.511719-26.894531 7.269531l-27.394531 15.949219c-2.363281 1.378906-5.003906 2.066406-7.648438 2.066406zm0 0" fill="#a5f6ff"/><path d="m171.988281 230.902344h-136.359375c-19.675781 0-35.628906-15.953125-35.628906-35.628906v-54.691407l34.929688-20.339843c12.78125-7.457032 27.378906-11.40625 42.203124-11.40625h21.324219v-75.675782h73.53125c8.390625 0 15.195313 6.804688 15.195313 15.195313v167.347656c0 8.394531-6.804688 15.199219-15.195313 15.199219zm0 0" fill="#ff7d81"/><path d="m413.414062 230.902344h-52.339843c-8.410157 0-15.164063-6.882813-15.195313-15.292969-.050781-13.601563-11.132812-24.652344-24.75-24.652344-13.605468 0-24.6875 11.050781-24.738281 24.652344-.03125 8.410156-6.785156 15.292969-15.195313 15.292969h-114.273437v-194.355469c0-19.90625 16.136719-36.046875 36.042969-36.046875h118.738281c8.183594 0 15.226563 6.289062 15.609375 14.460938.410156 8.726562-6.542969 15.933593-15.179688 15.933593-2.0625 0-3.996093.800781-5.453124 2.253907-.859376.863281-2.320313 2.753906-2.253907 5.640624.097657 4.226563 3.707031 7.53125 7.933594 7.53125h40.621094c6.5625 0 12.378906 4.210938 14.433593 10.445313l50.785157 154.1875c1.90625 5.785156.195312 12.277344-4.648438 16.382813-2.808593 2.382812-6.449219 3.566406-10.136719 3.566406zm0 0" fill="#4a7aff"/><path d="m377.414062 56.761719c-2.054687-6.230469-7.875-10.441407-14.433593-10.441407h-40.621094c-4.226563 0-7.835937-3.304687-7.933594-7.53125-.0625-2.886718 1.394531-4.78125 2.253907-5.640624 1.457031-1.457032 3.390624-2.257813 5.453124-2.257813 8.636719 0 15.589844-7.203125 15.179688-15.929687-.382812-8.171876-7.425781-14.460938-15.609375-14.460938h-86.914063v230.402344h46.40625c8.410157 0 15.164063-6.882813 15.195313-15.292969.054687-13.601563 11.132813-24.652344 24.742187-24.652344 13.613282 0 24.695313 11.050781 24.746094 24.652344.03125 8.410156 6.785156 15.292969 15.195313 15.292969h52.339843c3.6875 0 7.328126-1.183594 10.136719-3.566406 4.84375-4.109376 6.554688-10.597657 4.648438-16.386719zm0 0" fill="#0160ad"/><path d="m502.53125 141.128906-86.578125-133.691406c-2.800781-4.324219-7.601563-6.9375-12.753906-6.9375h-81.066407c-10.179687 0-19.75 3.960938-26.945312 11.15625-7.195312 7.199219-11.15625 16.765625-11.15625 26.945312 0 21.015626 17.09375 38.109376 38.101562 38.109376h29.851563l47.34375 143.746093c2.054687 6.234375 7.875 10.445313 14.433594 10.445313h39.945312c21.652344 0 40.753907-11.355469 51.097657-30.371094 10.34375-19.019531 9.492187-41.226562-2.273438-59.402344zm0 0" fill="#23272b"/><path d="m133.535156 215.707031c0 22.0625-17.882812 39.945313-39.945312 39.945313-22.058594 0-39.941406-17.882813-39.941406-39.945313 0-22.058593 17.882812-39.941406 39.941406-39.941406 22.0625 0 39.945312 17.882813 39.945312 39.941406zm0 0" fill="#afb4c8"/><path d="m93.589844 270.847656c-30.402344 0-55.136719-24.734375-55.136719-55.140625 0-30.402343 24.734375-55.140625 55.136719-55.140625 30.40625 0 55.140625 24.738282 55.140625 55.140625 0 30.40625-24.734375 55.140625-55.140625 55.140625zm0-79.886718c-13.644532 0-24.746094 11.101562-24.746094 24.746093s11.101562 24.75 24.746094 24.75c13.648437 0 24.75-11.101562 24.75-24.75 0-13.644531-11.101563-24.746093-24.75-24.746093zm0 0" fill="#555a66"/><path d="m361.074219 215.707031c0 22.0625-17.878907 39.945313-39.945313 39.945313-22.054687 0-39.933594-17.882813-39.933594-39.945313 0-22.054687 17.878907-39.945312 39.933594-39.945312 22.066406 0 39.945313 17.890625 39.945313 39.945312zm0 0" fill="#7e8596"/><path d="m321.128906 270.847656c-30.398437 0-55.128906-24.738281-55.128906-55.140625 0-30.40625 24.730469-55.140625 55.128906-55.140625 30.40625 0 55.140625 24.734375 55.140625 55.140625 0 30.402344-24.734375 55.140625-55.140625 55.140625zm0-79.890625c-13.640625 0-24.738281 11.101563-24.738281 24.75 0 13.644531 11.097656 24.746094 24.738281 24.746094 13.648438 0 24.75-11.101563 24.75-24.746094 0-13.648437-11.101562-24.75-24.75-24.75zm0 0" fill="#23272b"/></svg>