<svg height="512pt" viewBox="-39 0 512 512" width="512pt" xmlns="http://www.w3.org/2000/svg"><path d="m417.691406 512h-402.375c-8.460937 0-15.316406-6.855469-15.316406-15.316406v-17.800782c0-88.136718 71.703125-159.839843 159.84375-159.839843h113.320312c88.136719 0 159.84375 71.703125 159.84375 159.839843v17.800782c0 8.460937-6.855468 15.316406-15.316406 15.316406zm0 0" fill="#4a7aff"/><path d="m273.164062 319.042969h-56.742187v192.957031h201.269531c8.460938 0 15.316406-6.855469 15.316406-15.316406v-17.800782c0-88.136718-71.707031-159.839843-159.84375-159.839843zm0 0" fill="#0160ad"/><path d="m216.503906 293.941406c-59.410156 0-107.746094-48.335937-107.746094-107.746094 0-59.410156 48.335938-107.742187 107.746094-107.742187s107.746094 48.332031 107.746094 107.742187c0 59.410157-48.335938 107.746094-107.746094 107.746094zm0 0" fill="#ffcdbe"/><path d="m216.503906 78.453125c-.027344 0-.054687 0-.082031 0v215.488281h.082031c59.410156 0 107.746094-48.335937 107.746094-107.746094 0-59.410156-48.335938-107.742187-107.746094-107.742187zm0 0" fill="#ffb89c"/><path d="m299.90625 475.632812c-3.8125 0-7.621094-1.414062-10.582031-4.242187l-30.628907-29.269531c-3.023437-2.886719-4.734374-6.886719-4.734374-11.070313v-40.839843c0-8.457032 6.855468-15.316407 15.3125-15.316407h61.261718c8.457032 0 15.3125 6.859375 15.3125 15.316407v40.839843c0 4.183594-1.710937 8.183594-4.734375 11.070313l-30.628906 29.269531c-2.957031 2.828125-6.769531 4.242187-10.578125 4.242187zm0 0" fill="#fff04a"/><path d="m337.984375 148.164062c.425781-1.046874.714844-2.148437.863281-3.285156 3.03125-12.851562 6.0625-25.703125 9.09375-38.554687 2.078125-8.808594 5.359375-17.738281 2.964844-26.738281-6.925781-26.023438-26.804688-47.910157-50.03125-60.691407-25.667969-14.125-55.386719-18.7968748-84.371094-18.894531 0 0 0 0-.003906 0-44.773438.152344-91.285156 12.292969-119.394531 49.402344-6.390625 8.4375-11.363281 18.136718-14.453125 28.269531-.492188 1.617187-.949219 3.261719-1.242188 4.933594-1.074218 6.136719.875 11.9375 2.273438 17.871093 3.636718 15.40625 7.269531 30.808594 10.902344 46.214844 1.535156 6.507813 8.226562 11.242188 14.765624 11.242188h72.507813 115.453125 26.34375c2.601562 0 5.164062-.753906 7.429688-2.042969 2.953124-1.539063 5.378906-3.988281 6.683593-7.207031.0625-.140625.121094-.28125.179688-.425782.011719-.03125.023437-.0625.035156-.09375zm0 0" fill="#4a7aff"/><path d="m334.335938 131.644531c-26.984376-26.273437-66.628907-39.597656-117.832032-39.597656s-90.847656 13.320313-117.832031 39.597656c-2.960937 2.882813-4.632813 6.839844-4.632813 10.972657 0 4.132812 1.671876 8.089843 4.632813 10.972656 26.984375 26.277344 66.628906 39.601562 117.832031 39.601562s90.847656-13.324218 117.832032-39.601562c2.960937-2.882813 4.628906-6.839844 4.628906-10.972656 0-4.132813-1.667969-8.089844-4.628906-10.972657zm0 0" fill="#dce1eb"/><path d="m216.503906 68.089844c8.011719 0 15.683594-7.042969 15.316406-15.316406-.375-8.296876-6.730468-15.3125-15.316406-15.3125-8.011718 0-15.683594 7.042968-15.316406 15.3125.375 8.296874 6.730469 15.316406 15.316406 15.316406zm0 0" fill="#fff8ab"/><path d="m300.875 18.894531c-25.667969-14.125-55.386719-18.7968748-84.371094-18.894531 0 0 0 0-.003906 0-.023438 0-.050781 0-.078125 0v157.933594h80.886719 26.34375c2.605468 0 5.164062-.753906 7.433594-2.042969 2.953124-1.539063 5.375-3.988281 6.679687-7.207031.066406-.140625.125-.28125.183594-.425782.011719-.03125.023437-.0625.035156-.09375.425781-1.046874.714844-2.148437.867187-3.285156 3.03125-12.851562 6.0625-25.703125 9.09375-38.554687 2.078126-8.808594 5.355469-17.738281 2.960938-26.738281-6.925781-26.023438-26.808594-47.910157-50.03125-60.691407zm0 0" fill="#0160ad"/><path d="m216.503906 37.460938c-.027344 0-.054687.003906-.082031.003906v30.621094c.027344 0 .054687.003906.082031.003906 8.011719 0 15.683594-7.042969 15.316406-15.316406-.375-8.296876-6.730468-15.3125-15.316406-15.3125zm0 0" fill="#fff04a"/><path d="m216.503906 92.046875c-.027344 0-.054687 0-.082031 0v101.144531h.082031c51.203125 0 90.847656-13.324218 117.832032-39.601562 2.960937-2.882813 4.628906-6.835938 4.628906-10.96875 0-4.136719-1.667969-8.089844-4.628906-10.972656-26.984376-26.277344-66.628907-39.601563-117.832032-39.601563zm0 0" fill="#bec3d2"/></svg>