<svg height="512pt" viewBox="-67 0 512 512" width="512pt" xmlns="http://www.w3.org/2000/svg"><path d="m335.179688 512h-292.097657c-8.433593 0-15.269531-6.835938-15.269531-15.269531v-359.066407c0-8.429687 6.835938-15.265624 15.269531-15.265624h292.097657c8.433593 0 15.269531 6.835937 15.269531 15.265624v359.066407c0 8.433593-6.835938 15.269531-15.269531 15.269531zm0 0" fill="#afb4c8"/><path d="m335.179688 122.398438h-146.050782v389.601562h146.050782c8.433593 0 15.269531-6.835938 15.269531-15.269531v-359.066407c0-8.429687-6.835938-15.265624-15.269531-15.265624zm0 0" fill="#7e8596"/><path d="m264.167969 440.308594c-8.429688 0-15.269531-6.835938-15.269531-15.269532v-215.683593c0-8.429688 6.839843-15.269531 15.269531-15.269531 8.433593 0 15.269531 6.839843 15.269531 15.269531v215.6875c0 8.429687-6.835938 15.265625-15.269531 15.265625zm0 0" fill="#23272b"/><path d="m189.128906 440.308594c-8.429687 0-15.265625-6.835938-15.265625-15.269532v-215.683593c0-8.429688 6.835938-15.269531 15.265625-15.269531 8.433594 0 15.269532 6.839843 15.269532 15.269531v215.6875c0 8.429687-6.835938 15.265625-15.269532 15.265625zm0 0" fill="#555a66"/><path d="m114.09375 440.308594c-8.433594 0-15.269531-6.835938-15.269531-15.269532v-215.683593c0-8.429688 6.835937-15.269531 15.269531-15.269531 8.429688 0 15.265625 6.839843 15.265625 15.269531v215.6875c0 8.429687-6.835937 15.265625-15.265625 15.265625zm0 0" fill="#555a66"/><path d="m204.398438 425.039062v-215.683593c0-8.429688-6.835938-15.269531-15.269532-15.269531v246.222656c8.433594 0 15.269532-6.835938 15.269532-15.269532zm0 0" fill="#23272b"/><path d="m239.539062 83.394531h-100.820312c-8.429688 0-15.265625-6.835937-15.265625-15.269531v-52.855469c0-8.433593 6.835937-15.269531 15.265625-15.269531h100.820312c8.433594 0 15.269532 6.835938 15.269532 15.269531v52.855469c0 8.433594-6.835938 15.269531-15.269532 15.269531zm0 0" fill="#afb4c8"/><path d="m239.539062 0h-50.410156v83.394531h50.410156c8.433594 0 15.269532-6.835937 15.269532-15.269531v-52.855469c0-8.433593-6.835938-15.269531-15.269532-15.269531zm0 0" fill="#7e8596"/><path d="m362.992188 152.933594h-347.722657c-8.433593 0-15.269531-6.835938-15.269531-15.269532v-69.320312c0-8.429688 6.835938-15.269531 15.269531-15.269531h347.722657c8.433593 0 15.269531 6.839843 15.269531 15.269531v69.320312c0 8.433594-6.835938 15.269532-15.269531 15.269532zm0 0" fill="#555a66"/><path d="m362.992188 53.074219h-173.863282v99.859375h173.863282c8.433593 0 15.269531-6.835938 15.269531-15.269532v-69.320312c0-8.433594-6.835938-15.269531-15.269531-15.269531zm0 0" fill="#23272b"/></svg>