<svg height="512pt" viewBox="0 0 512.00067 512" width="512pt" xmlns="http://www.w3.org/2000/svg"><path d="m45.035156 470.042969c-45.097656-45.097657-56.601562-105.609375-33.261718-174.992188 18.320312-54.472656 58.667968-114.730469 113.605468-169.667969 54.941406-54.941406 115.195313-95.289062 169.671875-113.609374 69.382813-23.339844 129.894531-11.835938 174.992188 33.261718 6.136719 6.136719 6.136719 16.085938 0 22.226563l-107.132813 107.128906c-6.136718 6.136719-16.085937 6.136719-22.226562 0-45.710938-45.710937-104.628906-.445313-135.683594 30.609375-31.054688 31.050781-76.320312 89.972656-30.609375 135.683594 6.136719 6.136718 6.136719 16.089844 0 22.226562l-107.128906 107.132813c-6.140625 6.136719-16.089844 6.136719-22.226563 0zm0 0" fill="#fff8ab"/><path d="m125.382812 125.378906c-54.941406 54.941406-95.289062 115.199219-113.609374 169.671875-23.339844 69.382813-11.835938 129.894531 33.261718 174.992188 6.136719 6.136719 16.085938 6.136719 22.226563 0l107.128906-107.132813c6.136719-6.136718 6.136719-16.085937 0-22.226562-45.714844-45.710938-.445313-104.628906 30.609375-135.683594v-.003906zm0 0" fill="#fff04a"/><path d="m72.683594 497.695312-27.648438-27.652343 129.355469-129.359375 27.652344 27.65625c19.074219 19.074218 19.074219 50.105468 0 69.183594l-60.175781 60.171874c-19.070313 19.074219-50.105469 19.074219-69.183594 0zm0 0" fill="#23272b"/><path d="m368.335938 202.042969-27.652344-27.652344 129.359375-129.355469 27.652343 27.652344c19.074219 19.074219 19.074219 50.109375 0 69.183594l-60.175781 60.171875c-19.074219 19.074219-50.109375 19.074219-69.183593 0zm0 0" fill="#555a66"/></svg>