<svg height="512pt" viewBox="-63 0 512 512" width="512pt" xmlns="http://www.w3.org/2000/svg"><path d="m330.566406 208.003906h-275.351562c-8.351563 0-15.117188-6.769531-15.117188-15.117187v-99.929688c0-8.351562 6.765625-15.117187 15.117188-15.117187h275.351562c8.347656 0 15.117188 6.765625 15.117188 15.117187v99.929688c0 8.347656-6.769532 15.117187-15.117188 15.117187zm0 0" fill="#ff7d81"/><path d="m330.566406 77.839844h-137.675781v130.164062h137.675781c8.347656 0 15.117188-6.769531 15.117188-15.117187v-99.929688c0-8.351562-6.769532-15.117187-15.117188-15.117187zm0 0" fill="#ff3da8"/><path d="m245.023438 156.460938h-104.253907c-8.351562 0-15.121093-6.765626-15.121093-15.117188 0-8.347656 6.769531-15.117188 15.121093-15.117188h104.253907c8.347656 0 15.117187 6.769532 15.117187 15.117188 0 8.351562-6.769531 15.117188-15.117187 15.117188zm0 0" fill="#555a66"/><path d="m245.023438 126.226562h-52.132813v30.234376h52.132813c8.347656 0 15.117187-6.765626 15.117187-15.117188 0-8.347656-6.769531-15.117188-15.117187-15.117188zm0 0" fill="#23272b"/><path d="m330.566406 512h-275.351562c-8.347656 0-15.117188-6.769531-15.117188-15.117188v-52.597656c0-8.347656 6.769532-15.117187 15.117188-15.117187h275.347656c8.351562 0 15.117188 6.769531 15.117188 15.117187v52.597656c.003906 8.347657-6.765626 15.117188-15.113282 15.117188zm0 0" fill="#ff7d81"/><path d="m330.566406 429.167969h-137.675781v82.832031h137.675781c8.347656 0 15.117188-6.769531 15.117188-15.117188v-52.597656c0-8.347656-6.769532-15.117187-15.117188-15.117187zm0 0" fill="#ff3da8"/><path d="m345.683594 459.410156h-305.585938v-281.640625h305.585938zm0 0" fill="#ff3da8"/><path d="m192.890625 177.769531h152.792969v281.640625h-152.792969zm0 0" fill="#c83c50"/><path d="m271.394531 407.867188h-157c-8.351562 0-15.117187-6.769532-15.117187-15.117188v-148.328125c0-8.347656 6.765625-15.117187 15.117187-15.117187h157c8.347657 0 15.117188 6.769531 15.117188 15.117187v148.328125c0 8.347656-6.769531 15.117188-15.117188 15.117188zm0 0" fill="#fff"/><path d="m271.394531 229.304688h-78.503906v178.5625h78.503906c8.347657 0 15.117188-6.769532 15.117188-15.117188v-148.328125c0-8.347656-6.769531-15.117187-15.117188-15.117187zm0 0" fill="#dce1eb"/><path d="m338.976562 108.074219h-292.175781c-25.804687 0-46.800781-20.996094-46.800781-46.800781 0-20.835938 13.433594-38.863282 33.425781-44.851563 25-7.492187 72.960938-16.421875 159.464844-16.421875s134.460937 8.929688 159.460937 16.421875c19.996094 5.988281 33.429688 24.015625 33.429688 44.851563 0 25.808593-20.996094 46.800781-46.804688 46.800781zm0 0" fill="#ff3da8"/><path d="m338.976562 108.074219c25.808594 0 46.804688-20.996094 46.804688-46.800781 0-20.835938-13.433594-38.863282-33.429688-44.851563-25-7.492187-72.957031-16.421875-159.460937-16.421875v108.074219zm0 0" fill="#c83c50"/></svg>