<svg height="512pt" viewBox="-85 0 511 512" width="512pt" xmlns="http://www.w3.org/2000/svg"><path d="m327.183594 512h-311.417969c-8.429687 0-15.265625-6.835938-15.265625-15.265625v-401.132813c0-8.433593 6.835938-15.265624 15.265625-15.265624h311.417969c8.429687 0 15.265625 6.832031 15.265625 15.265624v401.132813c0 8.429687-6.835938 15.265625-15.265625 15.265625zm0 0" fill="#4a7aff"/><path d="m327.183594 80.335938h-155.710938v431.664062h155.710938c8.429687 0 15.265625-6.835938 15.265625-15.265625v-401.132813c0-8.433593-6.835938-15.265624-15.265625-15.265624zm0 0" fill="#0160ad"/><path d="m251.808594 0h-160.667969c-8.429687 0-15.265625 6.835938-15.265625 15.265625v160.667969c0 8.429687 6.835938 15.265625 15.265625 15.265625h160.667969c8.429687 0 15.265625-6.835938 15.265625-15.265625v-160.667969c0-8.429687-6.835938-15.265625-15.265625-15.265625zm0 0" fill="#ff7d81"/><path d="m251.808594 0h-80.335938v191.199219h80.335938c8.429687 0 15.265625-6.835938 15.265625-15.265625v-160.667969c0-8.429687-6.835938-15.265625-15.265625-15.265625zm0 0" fill="#ff3da8"/><g fill="#fff8ab"><path d="m134 352.996094h-48.597656c-8.433594 0-15.265625-6.832032-15.265625-15.265625 0-8.429688 6.832031-15.265625 15.265625-15.265625h48.597656c8.429688 0 15.265625 6.835937 15.265625 15.265625 0 8.433593-6.835937 15.265625-15.265625 15.265625zm0 0"/><path d="m134 296.679688h-48.597656c-8.433594 0-15.265625-6.832032-15.265625-15.265626 0-8.429687 6.832031-15.265624 15.265625-15.265624h48.597656c8.429688 0 15.265625 6.835937 15.265625 15.265624 0 8.433594-6.835937 15.265626-15.265625 15.265626zm0 0"/><path d="m134 240.363281h-48.597656c-8.433594 0-15.265625-6.835937-15.265625-15.265625 0-8.429687 6.832031-15.265625 15.265625-15.265625h48.597656c8.429688 0 15.265625 6.835938 15.265625 15.265625 0 8.429688-6.835937 15.265625-15.265625 15.265625zm0 0"/></g><path d="m257.546875 352.8125h-48.597656c-8.429688 0-15.265625-6.835938-15.265625-15.265625s6.835937-15.265625 15.265625-15.265625h48.597656c8.429687 0 15.265625 6.835938 15.265625 15.265625s-6.835938 15.265625-15.265625 15.265625zm0 0" fill="#fff04a"/><path d="m257.546875 296.496094h-48.597656c-8.429688 0-15.265625-6.835938-15.265625-15.265625 0-8.433594 6.835937-15.265625 15.265625-15.265625h48.597656c8.429687 0 15.265625 6.832031 15.265625 15.265625 0 8.429687-6.835938 15.265625-15.265625 15.265625zm0 0" fill="#fff04a"/><path d="m257.546875 240.179688h-48.597656c-8.429688 0-15.265625-6.835938-15.265625-15.265626 0-8.433593 6.835937-15.265624 15.265625-15.265624h48.597656c8.429687 0 15.265625 6.832031 15.265625 15.265624 0 8.429688-6.835938 15.265626-15.265625 15.265626zm0 0" fill="#fff04a"/><path d="m203.023438 80.335938h-16.285157v-16.285157c0-8.429687-6.832031-15.265625-15.265625-15.265625-8.429687 0-15.265625 6.835938-15.265625 15.265625v16.285157h-16.28125c-8.429687 0-15.265625 6.832031-15.265625 15.265624 0 8.429688 6.835938 15.265626 15.265625 15.265626h16.28125v16.28125c0 8.429687 6.835938 15.265624 15.265625 15.265624 8.433594 0 15.265625-6.835937 15.265625-15.265624v-16.28125h16.285157c8.429687 0 15.265624-6.835938 15.265624-15.265626 0-8.433593-6.835937-15.265624-15.265624-15.265624zm0 0" fill="#555a66"/><path d="m203.023438 80.335938h-16.285157v-16.285157c0-8.429687-6.832031-15.265625-15.265625-15.265625v93.628906c8.433594 0 15.265625-6.835937 15.265625-15.265624v-16.28125h16.285157c8.429687 0 15.265624-6.835938 15.265624-15.265626 0-8.433593-6.835937-15.265624-15.265624-15.265624zm0 0" fill="#23272b"/><path d="m239.199219 512h-135.449219v-120.183594c0-8.429687 6.832031-15.265625 15.265625-15.265625h104.917969c8.429687 0 15.265625 6.835938 15.265625 15.265625zm0 0" fill="#555a66"/><path d="m223.933594 376.550781h-52.460938v135.449219h67.726563v-120.183594c0-8.429687-6.835938-15.265625-15.265625-15.265625zm0 0" fill="#23272b"/></svg>