<svg height="512pt" viewBox="-25 0 511 512" width="512pt" xmlns="http://www.w3.org/2000/svg"><path d="m445.738281 512h-429.816406c-8.515625 0-15.421875-6.90625-15.421875-15.421875v-481.15625c0-8.515625 6.90625-15.421875 15.421875-15.421875h429.816406c8.515625 0 15.421875 6.90625 15.421875 15.421875v481.15625c0 8.515625-6.90625 15.421875-15.421875 15.421875zm0 0" fill="#555a66"/><path d="m445.738281 0h-214.902343v512h214.902343c8.515625 0 15.421875-6.90625 15.421875-15.421875v-481.15625c0-8.515625-6.90625-15.421875-15.421875-15.421875zm0 0" fill="#23272b"/><path d="m396.746094 512h-331.832032v-432.167969c0-8.515625 6.902344-15.417969 15.417969-15.417969h300.992188c8.519531 0 15.421875 6.902344 15.421875 15.417969zm0 0" fill="#dce1eb"/><path d="m381.328125 64.414062h-150.492187v447.585938h165.910156v-432.167969c0-8.515625-6.902344-15.417969-15.417969-15.417969zm0 0" fill="#bec3d2"/><path d="m396.746094 223.792969h64.414062v64.414062h-64.414062zm0 0" fill="#fff04a"/><path d="m396.746094 288.207031h64.414062v64.410157h-64.414062zm0 0" fill="#ff3da8"/></svg>