<svg height="512pt" viewBox="0 0 512 512.00101" width="512pt" xmlns="http://www.w3.org/2000/svg"><path d="m444.765625 302.878906h-377.523437c-8.382813 0-15.179688-6.796875-15.179688-15.179687v-63.390625c0-8.382813 6.796875-15.179688 15.179688-15.179688h377.523437c8.382813 0 15.179687 6.796875 15.179687 15.179688v63.390625c0 8.382812-6.796874 15.179687-15.179687 15.179687zm0 0" fill="#dce1eb"/><path d="m198.328125 302.878906h-131.085937c-8.382813 0-15.179688-6.796875-15.179688-15.179687v-63.390625c0-8.382813 6.796875-15.179688 15.179688-15.179688h131.085937zm0 0" fill="#fff04a"/><path d="m444.765625 209.128906h-188.847656v93.75h188.847656c8.382813 0 15.179687-6.796875 15.179687-15.179687v-63.394531c0-8.378907-6.796874-15.175782-15.179687-15.175782zm0 0" fill="#bec3d2"/><path d="m444.765625 302.878906h-45.082031v-93.75h45.082031c8.382813 0 15.179687 6.796875 15.179687 15.179688v63.390625c0 8.382812-6.796874 15.179687-15.179687 15.179687zm0 0" fill="#23272b"/><path d="m437.019531 74.980469c-48.351562-48.351563-112.640625-74.980469-181.019531-74.980469s-132.667969 26.628906-181.019531 74.980469c-48.351563 48.351562-74.980469 112.640625-74.980469 181.019531s26.628906 132.667969 74.980469 181.019531c48.351562 48.351563 112.640625 74.980469 181.019531 74.980469s132.667969-26.628906 181.019531-74.980469c48.351563-48.351562 74.980469-112.640625 74.980469-181.019531s-26.628906-132.667969-74.980469-181.019531zm44.625 181.019531c0 56.761719-21.074219 108.6875-55.796875 148.382812l-318.230468-318.230468c39.699218-34.722656 91.625-55.796875 148.382812-55.796875 124.421875 0 225.644531 101.222656 225.644531 225.644531zm-451.289062 0c0-56.761719 21.074219-108.6875 55.796875-148.382812l318.230468 318.230468c-39.695312 34.722656-91.621093 55.796875-148.382812 55.796875-124.417969 0-225.644531-101.222656-225.644531-225.644531zm0 0" fill="#ff7d81"/><path d="m256 0c-.027344 0-.054688 0-.082031 0v30.355469h.082031c124.421875 0 225.644531 101.222656 225.644531 225.644531 0 56.761719-21.074219 108.6875-55.796875 148.382812l-169.929687-169.925781v42.925781l148.464843 148.464844c-39.699218 34.722656-91.625 55.796875-148.382812 55.796875-.027344 0-.054688 0-.082031 0v30.355469h.082031c68.378906 0 132.667969-26.628906 181.019531-74.980469 48.351563-48.351562 74.980469-112.636719 74.980469-181.019531 0-68.378906-26.628906-132.664062-74.980469-181.015625-48.351562-48.355469-112.640625-74.984375-181.019531-74.984375zm0 0" fill="#ff3da8"/></svg>