<svg height="512pt" viewBox="0 -45 512.00122 512" width="512pt" xmlns="http://www.w3.org/2000/svg"><path d="m496.882812 421.75h-161.824218c-4.976563 0-9.636719-2.449219-12.457032-6.550781-2.820312-4.101563-3.441406-9.328125-1.660156-13.976563l80.910156-211.109375c2.242188-5.847656 7.855469-9.707031 14.117188-9.707031 6.265625 0 11.878906 3.859375 14.117188 9.707031l80.914062 211.109375c1.78125 4.648438 1.160156 9.875-1.660156 13.976563-2.820313 4.101562-7.480469 6.550781-12.457032 6.550781zm0 0" fill="#ff7d81"/><path d="m496.882812 421.75h-80.914062v-241.34375c6.261719 0 11.875 3.859375 14.117188 9.707031l80.914062 211.109375c1.78125 4.644532 1.160156 9.875-1.660156 13.976563-2.820313 4.101562-7.480469 6.550781-12.457032 6.550781zm0 0" fill="#ff3da8"/><path d="m415.96875 148.898438c-41.050781 0-74.449219-33.398438-74.449219-74.449219s33.398438-74.449219 74.449219-74.449219 74.449219 33.398438 74.449219 74.449219-33.398438 74.449219-74.449219 74.449219zm0 0" fill="#ffcdbe"/><path d="m490.417969 74.449219c0-41.050781-33.398438-74.449219-74.449219-74.449219v148.898438c41.050781 0 74.449219-33.398438 74.449219-74.449219zm0 0" fill="#ffb89c"/><path d="m96.03125 148.898438c-41.050781 0-74.449219-33.398438-74.449219-74.449219s33.398438-74.449219 74.449219-74.449219 74.449219 33.398438 74.449219 74.449219-33.398438 74.449219-74.449219 74.449219zm0 0" fill="#ffcdbe"/><path d="m96.03125 421.75c-6.261719 0-11.875-3.859375-14.117188-9.707031l-80.914062-211.105469c-1.78125-4.648438-1.160156-9.875 1.660156-13.976562 2.820313-4.101563 7.480469-6.554688 12.457032-6.554688h161.824218c4.976563 0 9.636719 2.453125 12.457032 6.554688 2.820312 4.101562 3.441406 9.328124 1.660156 13.976562l-80.910156 211.105469c-2.242188 5.847656-7.855469 9.707031-14.117188 9.707031zm0 0" fill="#4a7aff"/><path d="m256 421.75c-8.347656 0-15.117188-6.769531-15.117188-15.117188v-391.515624c0-8.347657 6.769532-15.117188 15.117188-15.117188s15.117188 6.769531 15.117188 15.117188v391.515624c0 8.347657-6.765626 15.117188-15.117188 15.117188zm0 0" fill="#555a66"/><path d="m176.945312 180.40625h-80.914062v241.34375c6.261719 0 11.875-3.859375 14.117188-9.707031l80.914062-211.109375c1.78125-4.644532 1.160156-9.875-1.660156-13.976563-2.824219-4.097656-7.480469-6.550781-12.457032-6.550781zm0 0" fill="#0160ad"/><path d="m170.480469 74.449219c0-41.050781-33.398438-74.449219-74.449219-74.449219v148.898438c41.050781 0 74.449219-33.398438 74.449219-74.449219zm0 0" fill="#ffb89c"/></svg>