<svg height="512pt" viewBox="-33 0 512 512" width="512pt" xmlns="http://www.w3.org/2000/svg"><path d="m74.757812 512h-59.398437c-8.480469 0-15.359375-6.878906-15.359375-15.359375v-481.28125c0-8.480469 6.878906-15.359375 15.359375-15.359375h59.398437c8.480469 0 15.359376 6.878906 15.359376 15.359375v481.28125c0 8.480469-6.875 15.359375-15.359376 15.359375zm0 0" fill="#fff8ab"/><path d="m431.117188 512h-59.398438c-8.480469 0-15.359375-6.878906-15.359375-15.359375v-481.28125c0-8.480469 6.878906-15.359375 15.359375-15.359375h59.398438c8.484374 0 15.359374 6.878906 15.359374 15.359375v481.28125c0 8.480469-6.875 15.359375-15.359374 15.359375zm0 0" fill="#fff04a"/><path d="m387.078125 512h-327.679687v-512h327.679687zm0 0" fill="#555a66"/><path d="m223.242188 0h163.835937v512h-163.835937zm0 0" fill="#23272b"/><g fill="#fff"><path d="m247.816406 462.847656h-49.15625c-8.484375 0-15.359375-6.875-15.359375-15.359375v-77.832031c0-8.480469 6.875-15.359375 15.359375-15.359375h49.15625c8.484375 0 15.359375 6.878906 15.359375 15.359375v77.832031c0 8.484375-6.875 15.359375-15.359375 15.359375zm0 0"/><path d="m247.816406 310.273438h-49.15625c-8.484375 0-15.359375-6.875-15.359375-15.359376v-77.828124c0-8.484376 6.875-15.359376 15.359375-15.359376h49.15625c8.484375 0 15.359375 6.875 15.359375 15.359376v77.828124c0 8.484376-6.875 15.359376-15.359375 15.359376zm0 0"/><path d="m247.816406 157.703125h-49.15625c-8.484375 0-15.359375-6.878906-15.359375-15.359375v-77.832031c0-8.484375 6.875-15.359375 15.359375-15.359375h49.15625c8.484375 0 15.359375 6.875 15.359375 15.359375v77.832031c0 8.480469-6.875 15.359375-15.359375 15.359375zm0 0"/></g><path d="m247.816406 49.152344h-24.574218v108.550781h24.574218c8.484375 0 15.359375-6.878906 15.359375-15.359375v-77.832031c0-8.484375-6.875-15.359375-15.359375-15.359375zm0 0" fill="#dce1eb"/><path d="m247.816406 201.726562h-24.574218v108.546876h24.574218c8.484375 0 15.359375-6.875 15.359375-15.359376v-77.828124c0-8.484376-6.875-15.359376-15.359375-15.359376zm0 0" fill="#dce1eb"/><path d="m247.816406 354.296875h-24.574218v108.550781h24.574218c8.484375 0 15.359375-6.875 15.359375-15.359375v-77.832031c0-8.480469-6.875-15.359375-15.359375-15.359375zm0 0" fill="#dce1eb"/></svg>