<svg height="512pt" viewBox="0 0 512 512" width="512pt" xmlns="http://www.w3.org/2000/svg"><path d="m256 512c-68.378906 0-132.667969-26.628906-181.019531-74.980469-48.351563-48.351562-74.980469-112.640625-74.980469-181.019531s26.628906-132.667969 74.980469-181.019531c48.351562-48.351563 112.640625-74.980469 181.019531-74.980469s132.667969 26.628906 181.019531 74.980469c48.351563 48.351562 74.980469 112.640625 74.980469 181.019531s-26.628906 132.664062-74.980469 181.015625c-48.351562 48.355469-112.640625 74.984375-181.019531 74.984375zm0 0" fill="#afb4c8"/><path d="m256.003906 0v512c68.378906 0 132.664063-26.628906 181.015625-74.980469 48.351563-48.351562 74.980469-112.640625 74.980469-181.019531s-26.628906-132.664062-74.980469-181.015625c-48.351562-48.355469-112.636719-74.98046875-181.015625-74.984375zm0 0" fill="#7e8596"/><path d="m256 464.8125c-55.777344 0-108.214844-21.722656-147.652344-61.160156-39.441406-39.441406-61.160156-91.878906-61.160156-147.652344 0-55.777344 21.71875-108.214844 61.160156-147.652344 39.4375-39.4375 91.875-61.160156 147.652344-61.160156 55.773438 0 108.210938 21.71875 147.652344 61.160156 39.4375 39.4375 61.160156 91.875 61.160156 147.652344 0 55.773438-21.722656 108.210938-61.160156 147.652344-39.4375 39.4375-91.875 61.160156-147.652344 61.160156zm0 0" fill="#7e8596"/><path d="m256.003906 47.1875v417.625c55.773438 0 108.210938-21.722656 147.648438-61.160156 39.441406-39.4375 61.160156-91.875 61.160156-147.652344 0-55.773438-21.71875-108.210938-61.160156-147.652344-39.4375-39.4375-91.875-61.160156-147.648438-61.160156zm0 0" fill="#555a66"/><path d="m256 47.183594c-115.140625 0-208.8125 93.671875-208.8125 208.8125s93.671875 208.8125 208.8125 208.8125 208.8125-93.671875 208.8125-208.8125-93.671875-208.8125-208.8125-208.8125zm0 243.863281c-19.328125 0-35.050781-15.722656-35.050781-35.050781s15.722656-35.050782 35.050781-35.050782 35.050781 15.722657 35.050781 35.050782-15.722656 35.050781-35.050781 35.050781zm34.171875-90.511719c-5.824219-3.601562-12.261719-6.304687-19.109375-7.929687v-42.628907c18.292969 2.585938 35.113281 9.808594 49.230469 20.441407zm-49.226563-7.933594c-6.847656 1.628907-13.285156 4.328126-19.113281 7.929688l-30.117187-30.117188c14.117187-10.632812 30.9375-17.851562 49.230468-20.4375zm-40.40625 29.226563c-3.605468 5.828125-6.304687 12.261719-7.929687 19.109375h-42.628906c2.585937-18.289062 9.804687-35.109375 20.4375-49.230469zm-7.933593 49.226563c1.628906 6.847656 4.328125 13.28125 7.929687 19.109374l-30.121094 30.121094c-10.628906-14.117187-17.847656-30.9375-20.433593-49.230468zm29.226562 40.402343c5.824219 3.601563 12.257813 6.304688 19.105469 7.929688v42.628906c-18.289062-2.585937-35.109375-9.804687-49.226562-20.4375zm49.222657 7.933594c6.847656-1.625 13.28125-4.328125 19.105468-7.925781l30.121094 30.117187c-14.117188 10.632813-30.9375 17.847657-49.226562 20.433594zm40.40625-29.222656c3.601562-5.824219 6.300781-12.257813 7.929687-19.105469h42.628906c-2.585937 18.289062-9.808593 35.109375-20.4375 49.226562zm7.933593-49.222657c-1.625-6.847656-4.324219-13.285156-7.929687-19.109374l30.121094-30.121094c10.632812 14.117187 17.847656 30.9375 20.433593 49.230468zm22.34375-91.976562c-19.8125-15.902344-44.113281-26.429688-70.675781-29.34375v-41.683594c37.976562 3.183594 72.609375 18.296875 100.136719 41.566406zm-100.792969-29.34375c-26.5625 2.914062-50.863281 13.4375-70.679687 29.339844l-29.460937-29.460938c27.53125-23.269531 62.164062-38.378906 100.140624-41.5625zm-91.976562 50.636719c-15.902344 19.8125-26.425781 44.113281-29.339844 70.675781h-41.683594c3.183594-37.976562 18.292969-72.605469 41.5625-100.136719zm-29.339844 100.792969c2.914063 26.5625 13.4375 50.863281 29.339844 70.675781l-29.460938 29.460937c-23.269531-27.53125-38.378906-62.160156-41.5625-100.136718zm50.636719 91.972656c19.8125 15.902344 44.113281 26.425781 70.671875 29.339844v41.683593c-37.972656-3.183593-72.605469-18.292969-100.132812-41.5625zm100.789063 29.339844c26.5625-2.914063 50.863281-13.433594 70.675781-29.335938l29.460937 29.460938c-27.53125 23.265624-62.160156 38.375-100.136718 41.558593zm91.972656-50.632813c15.902344-19.8125 26.425781-44.113281 29.34375-70.671875h41.683594c-3.183594 37.972656-18.296876 72.605469-41.566407 100.132812zm29.34375-100.789063c-2.910156-26.5625-13.433594-50.863281-29.335938-70.679687l29.460938-29.460937c23.269531 27.53125 38.378906 62.164062 41.558594 100.140624zm0 0" fill="#555a66"/><path d="m256.003906 47.183594v173.761718c19.324219.003907 35.046875 15.726563 35.046875 35.050782 0 19.328125-15.722656 35.046875-35.046875 35.050781v173.761719c115.136719 0 208.808594-93.675782 208.808594-208.8125 0-115.136719-93.671875-208.808594-208.808594-208.8125zm15.058594 30.757812c37.976562 3.183594 72.609375 18.296875 100.136719 41.566406l-29.460938 29.460938c-19.8125-15.902344-44.113281-26.429688-70.675781-29.34375zm48.332031 163.003906c-1.625-6.847656-4.324219-13.285156-7.929687-19.109374l30.121094-30.121094c10.632812 14.117187 17.847656 30.9375 20.433593 49.230468zm42.625 30.117188c-2.589843 18.289062-9.808593 35.109375-20.441406 49.226562l-30.117187-30.121093c3.601562-5.824219 6.300781-12.257813 7.929687-19.105469zm-71.847656-70.527344c-5.824219-3.601562-12.261719-6.304687-19.109375-7.929687v-42.628907c18.292969 2.585938 35.113281 9.808594 49.230469 20.441407zm-19.117187 118.855469c6.847656-1.625 13.28125-4.328125 19.105468-7.925781l30.121094 30.117187c-14.117188 10.632813-30.9375 17.847657-49.226562 20.433594zm0 114.660156v-41.683593c26.5625-2.914063 50.863281-13.433594 70.675781-29.335938l29.460937 29.460938c-27.53125 23.265624-62.160156 38.375-100.136718 41.558593zm121.433593-62.855469-29.460937-29.460937c15.902344-19.8125 26.425781-44.113281 29.34375-70.671875h41.683594c-3.1875 37.972656-18.296876 72.605469-41.566407 100.132812zm-.117187-130.25c-2.910156-26.5625-13.433594-50.863281-29.335938-70.679687l29.460938-29.460937c23.269531 27.53125 38.378906 62.164062 41.558594 100.140624zm0 0" fill="#23272b"/></svg>