<svg height="512pt" viewBox="-51 0 512 512" width="512pt" xmlns="http://www.w3.org/2000/svg"><path d="m229.382812 76.21875h-48.027343c-8.300781 0-15.027344-6.730469-15.027344-15.03125v-46.15625c0-8.300781 6.726563-15.03125 15.027344-15.03125h48.027343c8.300782 0 15.03125 6.730469 15.03125 15.03125v46.15625c0 8.300781-6.730468 15.03125-15.03125 15.03125zm0 0" fill="#555a66"/><path d="m229.382812 0h-24.015624v76.21875h24.015624c8.300782 0 15.03125-6.730469 15.03125-15.03125v-46.15625c0-8.300781-6.730468-15.03125-15.03125-15.03125zm0 0" fill="#23272b"/><path d="m395.703125 368.21875h-43.402344c-8.300781 0-15.027343-6.730469-15.027343-15.03125v-83.875c0-8.296875 6.726562-15.027344 15.027343-15.027344h43.402344c8.300781 0 15.027344 6.730469 15.027344 15.027344v83.875c0 8.300781-6.726563 15.03125-15.027344 15.03125zm0 0" fill="#23272b"/><path d="m58.429688 368.21875h-43.398438c-8.300781 0-15.03125-6.730469-15.03125-15.03125v-83.875c0-8.296875 6.730469-15.027344 15.03125-15.027344h43.398438c8.300781 0 15.03125 6.730469 15.03125 15.027344v83.875c0 8.300781-6.730469 15.03125-15.03125 15.03125zm0 0" fill="#555a66"/><path d="m101.832031 392.9375h-43.402343c-8.296876 0-15.027344-6.730469-15.027344-15.03125v-133.308594c0-8.300781 6.730468-15.03125 15.027344-15.03125h43.402343c8.300781 0 15.027344 6.730469 15.027344 15.03125v133.308594c0 8.300781-6.726563 15.03125-15.027344 15.03125zm0 0" fill="#ff3da8"/><path d="m308.898438 163.300781h-207.070313c-8.296875 0-15.027344 6.730469-15.027344 15.03125v265.839844c0 8.300781 6.730469 15.027344 15.027344 15.027344h207.070313c8.300781 0 15.027343-6.726563 15.027343-15.027344v-265.839844c0-8.300781-6.726562-15.03125-15.027343-15.03125zm0 0" fill="#ff7d81"/><path d="m352.300781 392.9375h-43.402343c-8.296876 0-15.027344-6.730469-15.027344-15.03125v-133.308594c0-8.300781 6.730468-15.03125 15.027344-15.03125h43.402343c8.300781 0 15.03125 6.730469 15.03125 15.03125v133.308594c0 8.300781-6.730469 15.03125-15.03125 15.03125zm0 0" fill="#c83c50"/><g fill="#ff3da8"><path d="m205.367188 392.9375c-45.042969 0-81.6875-36.644531-81.6875-81.6875 0-45.039062 36.644531-81.683594 81.6875-81.683594 45.039062 0 81.683593 36.644532 81.683593 81.683594 0 45.042969-36.644531 81.6875-81.683593 81.6875zm0 0"/><path d="m300.160156 83.542969c-25.320312-25.316407-58.984375-39.261719-94.792968-39.261719-73.917969 0-134.058594 60.132812-134.058594 134.050781 0 8.300781 6.730468 15.027344 15.027344 15.027344h238.054687c8.300781 0 15.027344-6.726563 15.027344-15.027344.003906-35.792969-13.941407-69.457031-39.257813-94.789062zm0 0"/><path d="m308.898438 163.300781h-103.527344v295.898438h103.527344c8.300781 0 15.027343-6.726563 15.027343-15.027344v-265.839844c0-8.300781-6.726562-15.03125-15.027343-15.03125zm0 0"/></g><path d="m205.371094 229.566406v163.371094c45.039062-.003906 81.679687-36.648438 81.679687-81.6875 0-45.035156-36.640625-81.679688-81.679687-81.683594zm0 0" fill="#c83c50"/><path d="m205.371094 44.28125v149.078125h119.019531c8.300781 0 15.03125-6.726563 15.03125-15.027344 0-35.796875-13.945313-69.457031-39.261719-94.789062-25.320312-25.316407-58.984375-39.261719-94.789062-39.261719zm0 0" fill="#c83c50"/><path d="m205.367188 349.503906c-21.09375 0-38.253907-17.160156-38.253907-38.253906s17.160157-38.253906 38.253907-38.253906 38.253906 17.160156 38.253906 38.253906-17.160156 38.253906-38.253906 38.253906zm0 0" fill="#555a66"/><path d="m205.371094 273v76.503906c21.089844-.003906 38.25-17.160156 38.25-38.253906 0-21.089844-17.160156-38.25-38.25-38.25zm0 0" fill="#23272b"/><path d="m306.371094 429.144531h-202.011719c-33.609375 0-60.957031 27.34375-60.957031 60.957031v6.867188c0 8.300781 6.730468 15.03125 15.027344 15.03125h293.871093c8.300781 0 15.03125-6.730469 15.03125-15.03125v-6.867188c0-33.613281-27.347656-60.957031-60.960937-60.957031zm0 0" fill="#ff3da8"/><path d="m306.371094 429.144531h-101v82.855469h146.929687c8.300781 0 15.03125-6.730469 15.03125-15.03125v-6.867188c0-33.613281-27.347656-60.957031-60.960937-60.957031zm0 0" fill="#c83c50"/></svg>