<svg height="512pt" viewBox="0 -54 512 512" width="512pt" xmlns="http://www.w3.org/2000/svg"><path d="m392.308594 404.101562h-51.84375c-8.382813 0-15.179688-6.796874-15.179688-15.179687v-201.414063c0-8.378906 6.796875-15.175781 15.179688-15.175781h51.84375c8.382812 0 15.179687 6.796875 15.179687 15.175781v201.414063c0 8.382813-6.796875 15.179687-15.179687 15.179687zm0 0" fill="#555a66"/><path d="m392.308594 172.332031h-25.921875v231.769531h25.921875c8.382812 0 15.179687-6.796874 15.179687-15.179687v-201.414063c0-8.378906-6.796875-15.175781-15.179687-15.175781zm0 0" fill="#23272b"/><path d="m229.792969 244.261719h-186.609375c-8.382813 0-15.179688 6.792969-15.179688 15.175781v129.484375c0 8.382813 6.796875 15.179687 15.179688 15.179687 8.382812 0 15.175781-6.796874 15.175781-15.179687v-28.523437h156.257813v28.523437c0 8.382813 6.792968 15.179687 15.175781 15.179687 8.382812 0 15.179687-6.796874 15.179687-15.179687v-129.484375c0-8.382812-6.796875-15.175781-15.179687-15.175781zm-171.433594 30.355469h156.257813v12.535156h-156.257813zm0 42.890624h156.257813v12.535157h-156.257813zm0 0" fill="#555a66"/><path d="m229.792969 244.261719h-93.304688v30.355469h78.128907v12.535156h-78.128907v30.355468h78.128907v12.535157h-78.128907v30.355469h78.128907v28.523437c0 8.382813 6.792968 15.179687 15.175781 15.179687 8.382812 0 15.179687-6.796874 15.179687-15.179687v-129.484375c0-8.382812-6.796875-15.175781-15.179687-15.175781zm0 0" fill="#23272b"/><path d="m438.757812 45.347656c-13.273437-27.515625-41.128906-45.347656-72.371093-45.347656-31.242188 0-59.101563 17.832031-72.371094 45.347656-40.992187 3.628906-73.242187 38.160156-73.242187 80.078125 0 41.921875 32.25 76.449219 73.242187 80.082031 13.269531 27.515626 41.128906 45.347657 72.371094 45.347657 31.242187 0 59.101562-17.832031 72.371093-45.347657 40.992188-3.632812 73.242188-38.160156 73.242188-80.082031 0-41.917969-32.25-76.449219-73.242188-80.078125zm0 0" fill="#ff7d81"/><path d="m257.796875 360.398438h-242.621094c-8.378906 0-15.175781-6.796876-15.175781-15.179688 0-8.378906 6.796875-15.175781 15.175781-15.175781h242.621094c8.382813 0 15.179687 6.796875 15.179687 15.175781 0 8.382812-6.796874 15.179688-15.179687 15.179688zm0 0" fill="#fff8ab"/><path d="m257.796875 330.042969h-121.308594v30.355469h121.308594c8.382813 0 15.179687-6.796876 15.179687-15.179688 0-8.378906-6.796874-15.175781-15.179687-15.175781zm0 0" fill="#fff04a"/><path d="m438.757812 45.347656c-13.273437-27.515625-41.128906-45.347656-72.371093-45.347656v250.855469c31.242187 0 59.101562-17.832031 72.371093-45.347657 40.992188-3.632812 73.242188-38.160156 73.242188-80.082031 0-41.917969-32.25-76.449219-73.242188-80.078125zm0 0" fill="#ff3da8"/></svg>