<svg height="512pt" viewBox="0 -89 512.00143 512" width="512pt" xmlns="http://www.w3.org/2000/svg"><path d="m471.695312 334.757812h-144.566406c-8.285156 0-15-6.71875-15-15.003906v-115.816406c0-5.398438 2.898438-10.378906 7.589844-13.042969l72.28125-41.070312c4.597656-2.613281 10.226562-2.613281 14.824219 0l72.285156 41.070312c4.691406 2.664063 7.589844 7.644531 7.589844 13.042969v115.816406c0 8.285156-6.71875 15.003906-15.003907 15.003906zm0 0" fill="#dce1eb"/><path d="m479.109375 190.894531-72.285156-41.070312c-2.296875-1.304688-4.855469-1.960938-7.410157-1.960938v186.894531h72.28125c8.285157 0 15.003907-6.71875 15.003907-15.003906v-115.816406c0-5.398438-2.898438-10.378906-7.589844-13.042969zm0 0" fill="#bec3d2"/><path d="m437.988281 334.757812h-77.152343v-80.011718c0-8.285156 6.71875-15.003906 15.003906-15.003906h47.144531c8.285156 0 15.003906 6.71875 15.003906 15.003906zm0 0" fill="#555a66"/><path d="m422.984375 239.742188h-23.570313v95.015624h38.574219v-80.011718c0-8.289063-6.714843-15.003906-15.003906-15.003906zm0 0" fill="#23272b"/><path d="m496.980469 233.316406c-2.511719 0-5.058594-.632812-7.398438-1.960937l-90.167969-51.234375-64.871093 36.859375c-7.203125 4.09375-16.359375 1.574219-20.453125-5.632813-4.09375-7.203125-1.574219-16.359375 5.632812-20.453125l72.28125-41.070312c4.597656-2.613281 10.226563-2.613281 14.824219 0l97.578125 55.441406c7.207031 4.09375 9.726562 13.253906 5.632812 20.457031-2.765624 4.863282-7.839843 7.59375-13.058593 7.59375zm0 0" fill="#ff7d81"/><path d="m504.40625 205.265625-97.582031-55.441406c-2.296875-1.304688-4.855469-1.960938-7.410157-1.960938v32.257813l90.167969 51.234375c2.339844 1.328125 4.886719 1.960937 7.398438 1.960937 5.21875 0 10.292969-2.730468 13.058593-7.59375 4.09375-7.203125 1.570313-16.363281-5.632812-20.457031zm0 0" fill="#ff3da8"/><path d="m338.234375 334.757812h-295.820313c-8.285156 0-15.003906-6.71875-15.003906-15.003906v-224.972656c0-5.398438 2.898438-10.378906 7.589844-13.042969l140.410156-79.777343c4.59375-2.613282 10.226563-2.613282 14.820313 0l140.410156 79.777343c4.691406 2.664063 7.589844 7.644531 7.589844 13.042969v239.976562zm0 0" fill="#dce1eb"/><path d="m330.640625 81.738281-140.410156-79.777343c-2.296875-1.308594-4.851563-1.960938-7.410157-1.960938v334.757812h155.410157v-239.976562c.003906-5.398438-2.898438-10.378906-7.589844-13.042969zm0 0" fill="#bec3d2"/><path d="m247.285156 334.757812h-128.929687v-141.886718c0-8.285156 6.71875-15.003906 15.003906-15.003906h98.925781c8.285156 0 15 6.71875 15 15.003906zm0 0" fill="#555a66"/><path d="m232.28125 177.867188h-49.460938v156.890624h64.464844v-141.886718c0-8.285156-6.714844-15.003906-15.003906-15.003906zm0 0" fill="#23272b"/><path d="m350.625 125.359375c-2.511719 0-5.058594-.632813-7.398438-1.960937l-160.40625-91.140626-160.402343 91.140626c-7.203125 4.09375-16.363281 1.570312-20.457031-5.632813s-1.570313-16.363281 5.632812-20.457031l167.816406-95.347656c4.597656-2.613282 10.226563-2.613282 14.824219 0l167.816406 95.347656c7.203125 4.09375 9.726563 13.253906 5.632813 20.457031-2.765625 4.863281-7.839844 7.59375-13.058594 7.59375zm0 0" fill="#ff7d81"/><path d="m358.050781 97.308594-167.820312-95.347656c-2.296875-1.308594-4.851563-1.960938-7.410157-1.960938v32.257812l160.40625 91.140626c2.339844 1.328124 4.886719 1.960937 7.394532 1.960937 5.222656 0 10.296875-2.730469 13.058594-7.59375 4.097656-7.203125 1.574218-16.363281-5.628907-20.457031zm0 0" fill="#ff3da8"/></svg>