<svg height="512pt" viewBox="0 -12 512 512" width="512pt" xmlns="http://www.w3.org/2000/svg"><path d="m193.402344 487.503906h-154.09375c-8.4375 0-15.277344-6.839844-15.277344-15.277344v-456.949218c0-8.4375 6.839844-15.277344 15.277344-15.277344h154.09375c8.4375 0 15.277344 6.839844 15.277344 15.277344v456.945312c0 8.441406-6.839844 15.28125-15.277344 15.28125zm0 0" fill="#7e8596"/><g fill="#555a66"><path d="m193.402344 0h-77.046875v487.503906h77.046875c8.4375 0 15.277344-6.84375 15.277344-15.28125v-456.945312c0-8.4375-6.839844-15.277344-15.277344-15.277344zm0 0"/><path d="m217.433594 91.386719h-202.15625c-8.4375 0-15.277344-6.84375-15.277344-15.28125s6.839844-15.277344 15.277344-15.277344h202.15625c8.4375 0 15.277344 6.839844 15.277344 15.277344s-6.839844 15.28125-15.277344 15.28125zm0 0"/><path d="m217.433594 141.085938h-202.15625c-8.4375 0-15.277344-6.839844-15.277344-15.28125 0-8.4375 6.839844-15.277344 15.277344-15.277344h202.15625c8.4375 0 15.277344 6.839844 15.277344 15.277344 0 8.441406-6.839844 15.28125-15.277344 15.28125zm0 0"/><path d="m217.433594 190.785156h-202.15625c-8.4375 0-15.277344-6.839844-15.277344-15.277344s6.839844-15.277343 15.277344-15.277343h202.15625c8.4375 0 15.277344 6.839843 15.277344 15.277343s-6.839844 15.277344-15.277344 15.277344zm0 0"/></g><path d="m217.433594 160.230469h-101.078125v30.554687h101.078125c8.4375 0 15.277344-6.839844 15.277344-15.277344s-6.839844-15.277343-15.277344-15.277343zm0 0" fill="#23272b"/><path d="m217.433594 110.527344h-101.078125v30.558594h101.078125c8.4375 0 15.277344-6.839844 15.277344-15.28125 0-8.4375-6.839844-15.277344-15.277344-15.277344zm0 0" fill="#23272b"/><path d="m217.433594 60.828125h-101.078125v30.558594h101.078125c8.4375 0 15.277344-6.84375 15.277344-15.28125s-6.839844-15.277344-15.277344-15.277344zm0 0" fill="#23272b"/><path d="m472.691406 487.503906h-154.09375c-8.4375 0-15.277344-6.839844-15.277344-15.277344v-456.949218c0-8.4375 6.839844-15.277344 15.277344-15.277344h154.09375c8.4375 0 15.277344 6.839844 15.277344 15.277344v456.945312c0 8.441406-6.839844 15.28125-15.277344 15.28125zm0 0" fill="#7e8596"/><path d="m472.691406 0h-77.046875v487.503906h77.046875c8.4375 0 15.277344-6.84375 15.277344-15.28125v-456.945312c0-8.4375-6.839844-15.277344-15.277344-15.277344zm0 0" fill="#555a66"/><path d="m496.722656 91.386719h-202.15625c-8.4375 0-15.277344-6.84375-15.277344-15.28125s6.839844-15.277344 15.277344-15.277344h202.15625c8.4375 0 15.277344 6.839844 15.277344 15.277344s-6.839844 15.28125-15.277344 15.28125zm0 0" fill="#555a66"/><path d="m496.722656 141.085938h-202.15625c-8.4375 0-15.277344-6.839844-15.277344-15.28125 0-8.4375 6.839844-15.277344 15.277344-15.277344h202.15625c8.4375 0 15.277344 6.839844 15.277344 15.277344 0 8.441406-6.839844 15.28125-15.277344 15.28125zm0 0" fill="#555a66"/><path d="m496.722656 190.785156h-202.15625c-8.4375 0-15.277344-6.839844-15.277344-15.277344s6.839844-15.277343 15.277344-15.277343h202.15625c8.4375 0 15.277344 6.839843 15.277344 15.277343s-6.839844 15.277344-15.277344 15.277344zm0 0" fill="#555a66"/><path d="m496.722656 160.230469h-101.078125v30.554687h101.078125c8.4375 0 15.277344-6.839844 15.277344-15.277344s-6.839844-15.277343-15.277344-15.277343zm0 0" fill="#23272b"/><path d="m496.722656 110.527344h-101.078125v30.558594h101.078125c8.4375 0 15.277344-6.839844 15.277344-15.28125 0-8.4375-6.839844-15.277344-15.277344-15.277344zm0 0" fill="#23272b"/><path d="m496.722656 60.828125h-101.078125v30.558594h101.078125c8.4375 0 15.277344-6.84375 15.277344-15.28125s-6.839844-15.277344-15.277344-15.277344zm0 0" fill="#23272b"/></svg>