<svg height="512pt" viewBox="-158 0 512 512" width="512pt" xmlns="http://www.w3.org/2000/svg"><path d="m128.03125 512h-60.890625c-8.347656 0-15.117187-6.769531-15.117187-15.117188v-137.105468c0-8.347656 6.769531-15.117188 15.117187-15.117188h60.890625c8.351562 0 15.117188 6.769532 15.117188 15.117188v137.105468c0 8.347657-6.765626 15.117188-15.117188 15.117188zm0 0" fill="#afb4c8"/><path d="m128.03125 344.660156h-30.445312v167.339844h30.445312c8.351562 0 15.117188-6.769531 15.117188-15.117188v-137.105468c0-8.347656-6.765626-15.117188-15.117188-15.117188zm0 0" fill="#7e8596"/><path d="m180.054688 374.894531h-164.9375c-8.347657 0-15.117188-6.765625-15.117188-15.117187v-344.660156c0-8.347657 6.769531-15.117188 15.117188-15.117188h164.9375c8.347656 0 15.117187 6.769531 15.117187 15.117188v344.660156c0 8.351562-6.769531 15.117187-15.117187 15.117187zm0 0" fill="#555a66"/><path d="m180.054688 0h-82.46875v374.894531h82.46875c8.347656 0 15.117187-6.765625 15.117187-15.117187v-344.660156c0-8.347657-6.769531-15.117188-15.117187-15.117188zm0 0" fill="#23272b"/><path d="m97.585938 331.777344c-25.125 0-45.5625-20.4375-45.5625-45.5625s20.4375-45.566406 45.5625-45.566406 45.5625 20.441406 45.5625 45.566406-20.4375 45.5625-45.5625 45.5625zm0 0" fill="#a5f6ff"/><path d="m143.148438 286.214844c0-25.125-20.4375-45.566406-45.5625-45.566406v91.128906c25.125 0 45.5625-20.441406 45.5625-45.5625zm0 0" fill="#38ebff"/><path d="m97.585938 233.011719c-25.125 0-45.5625-20.441407-45.5625-45.5625 0-25.125 20.4375-45.566407 45.5625-45.566407s45.5625 20.441407 45.5625 45.566407c0 25.121093-20.4375 45.5625-45.5625 45.5625zm0 0" fill="#fff8ab"/><path d="m143.148438 187.449219c0-25.125-20.4375-45.566407-45.5625-45.566407v91.128907c25.125 0 45.5625-20.441407 45.5625-45.5625zm0 0" fill="#fff04a"/><path d="m97.585938 134.246094c-25.125 0-45.5625-20.441406-45.5625-45.5625 0-25.125 20.4375-45.566406 45.5625-45.566406s45.5625 20.441406 45.5625 45.566406c0 25.121094-20.4375 45.5625-45.5625 45.5625zm0 0" fill="#ff7d81"/><path d="m143.148438 88.683594c0-25.125-20.4375-45.566406-45.5625-45.566406v91.128906c25.125 0 45.5625-20.441406 45.5625-45.5625zm0 0" fill="#ff3da8"/></svg>