<svg height="512pt" viewBox="-40 0 512 512" width="512pt" xmlns="http://www.w3.org/2000/svg"><path d="m283.941406 139.09375h-135.992187c-4.789063 0-9.316407-2.199219-12.273438-5.964844-2.960937-3.769531-4.023437-8.6875-2.890625-13.339844l28.824219-107.875c1.707031-6.992187 7.96875-11.914062 15.167969-11.914062h78.339844c7.195312 0 13.460937 4.921875 15.164062 11.914062l28.828125 107.875c1.132813 4.652344.066406 9.570313-2.890625 13.335938-2.960938 3.769531-7.484375 5.96875-12.277344 5.96875zm0 0" fill="#fff8ab"/><path d="m269.84375 11.914062c-1.703125-6.992187-7.96875-11.914062-15.167969-11.914062h-39.171875v139.09375h68c4.789063 0 9.316406-2.199219 12.273438-5.964844 2.960937-3.769531 4.027344-8.6875 2.890625-13.339844zm0 0" fill="#fff04a"/><path d="m325.570312 309.9375h-219.246093c-4.789063 0-9.316407-2.199219-12.273438-5.964844-2.960937-3.769531-4.027343-8.6875-2.894531-13.339844l22.53125-92.492187c1.703125-6.992187 7.96875-11.914063 15.167969-11.914063h174.183593c7.199219 0 13.460938 4.921876 15.164063 11.914063l22.53125 92.492187c1.132813 4.65625.066406 9.570313-2.890625 13.339844-2.960938 3.765625-7.484375 5.964844-12.273438 5.964844zm0 0" fill="#fff8ab"/><path d="m318.203125 198.140625c-1.703125-6.996094-7.964844-11.917969-15.164063-11.917969h-87.097656v123.714844h109.628906c4.789063 0 9.3125-2.199219 12.273438-5.964844 2.957031-3.769531 4.023438-8.6875 2.890625-13.339844zm0 0" fill="#fff04a"/><path d="m374.8125 512h-317.730469c-4.792969 0-9.316406-2.199219-12.277343-5.964844-2.957032-3.769531-4.023438-8.6875-2.890626-13.339844l30.148438-123.714843c1.703125-6.992188 7.96875-11.910157 15.167969-11.910157h257.433593c7.199219 0 13.464844 4.921876 15.167969 11.910157l30.148438 123.714843c1.132812 4.65625.066406 9.570313-2.890625 13.339844-2.960938 3.765625-7.488282 5.964844-12.277344 5.964844zm0 0" fill="#fff8ab"/><path d="m359.832031 368.980469c-1.707031-6.992188-7.96875-11.914063-15.167969-11.914063h-128.722656v154.933594h158.871094c4.789062 0 9.316406-2.199219 12.273438-5.964844 2.960937-3.769531 4.027343-8.6875 2.890624-13.339844zm0 0" fill="#fff04a"/><path d="m364.535156 388.289062h-297.179687l26.707031-109.570312h243.769531zm0 0" fill="#dce1eb"/><path d="m215.941406 388.289062h148.59375l-26.703125-109.570312h-121.890625zm0 0" fill="#bec3d2"/><path d="m322.898438 217.445312h-213.902344l26.691406-109.570312h160.519531zm0 0" fill="#dce1eb"/><path d="m215.941406 217.445312h106.957032l-26.691407-109.570312h-80.265625zm0 0" fill="#bec3d2"/><path d="m416.28125 512h-400.671875c-8.621094 0-15.609375-6.988281-15.609375-15.609375s6.988281-15.609375 15.609375-15.609375h400.671875c8.621094 0 15.609375 6.988281 15.609375 15.609375s-6.988281 15.609375-15.609375 15.609375zm0 0" fill="#555a66"/><path d="m416.28125 480.78125h-200.339844v31.21875h200.339844c8.621094 0 15.613281-6.988281 15.613281-15.609375s-6.992187-15.609375-15.613281-15.609375zm0 0" fill="#23272b"/></svg>