<svg height="512pt" viewBox="0 0 512 512" width="512pt" xmlns="http://www.w3.org/2000/svg"><path d="m119.335938 469.222656h-71.394532c-8.449218 0-15.296875-6.847656-15.296875-15.296875v-43.917969c0-4.746093 2.203125-9.226562 5.96875-12.121093l35.695313-27.480469c5.5-4.230469 13.164062-4.230469 18.664062 0l35.695313 27.480469c3.761719 2.894531 5.96875 7.375 5.96875 12.121093v43.917969c-.003907 8.449219-6.851563 15.296875-15.300781 15.296875zm0 0" fill="#fff8ab"/><path d="m119.335938 469.222656c8.449218 0 15.296874-6.847656 15.296874-15.296875v-43.917969c0-4.746093-2.203124-9.226562-5.964843-12.121093l-35.699219-27.480469c-2.746094-2.113281-6.039062-3.171875-9.328125-3.171875v101.988281zm0 0" fill="#fff04a"/><path d="m316.175781 512h-120.351562c-8.449219 0-15.300781-6.851562-15.300781-15.296875v-158.09375c0-3.933594-3.199219-7.132813-7.132813-7.132813h-158.09375c-8.445313 0-15.296875-6.851562-15.296875-15.300781v-120.351562c0-8.449219 6.851562-15.300781 15.296875-15.300781h158.09375c3.933594 0 7.132813-3.199219 7.132813-7.132813v-28c0-3.933594-3.199219-7.132813-7.132813-7.132813h-158.09375c-8.445313 0-15.296875-6.851562-15.296875-15.300781v-50.320312c0-8.449219 6.851562-15.300781 15.296875-15.300781h158.09375c3.933594 0 7.132813-3.199219 7.132813-7.132813v-34.90625c0-8.445313 6.851562-15.296875 15.300781-15.296875h120.351562c8.449219 0 15.300781 6.851562 15.300781 15.296875v158.09375c0 3.933594 3.199219 7.132813 7.132813 7.132813h158.09375c8.445313 0 15.296875 6.851562 15.296875 15.300781v120.351562c0 8.449219-6.851562 15.300781-15.296875 15.300781h-158.09375c-3.933594 0-7.132813 3.199219-7.132813 7.132813v28c0 3.933594 3.199219 7.132813 7.132813 7.132813h158.09375c8.445313 0 15.296875 6.851562 15.296875 15.300781v50.320312c0 8.449219-6.851562 15.300781-15.296875 15.300781h-158.09375c-3.933594 0-7.132813 3.199219-7.132813 7.132813v34.90625c0 8.445313-6.851562 15.296875-15.300781 15.296875zm0 0" fill="#7e8596"/><path d="m496.703125 180.523438h-158.09375c-3.933594 0-7.132813-3.199219-7.132813-7.132813v-158.09375c0-8.445313-6.851562-15.296875-15.300781-15.296875h-60.179687v512h60.179687c8.449219 0 15.300781-6.851562 15.300781-15.296875v-34.90625c0-3.933594 3.199219-7.132813 7.132813-7.132813h158.089844c8.449219 0 15.300781-6.851562 15.300781-15.300781v-50.320312c0-8.449219-6.851562-15.300781-15.300781-15.300781h-158.089844c-3.933594 0-7.132813-3.199219-7.132813-7.132813v-28c0-3.933594 3.199219-7.132813 7.132813-7.132813h158.09375c8.445313 0 15.296875-6.851562 15.296875-15.300781v-120.351562c0-8.449219-6.851562-15.300781-15.296875-15.300781zm0 0" fill="#555a66"/><g fill="#dce1eb"><path d="m34.464844 271.296875h-34.464844v-30.597656h34.464844c8.449218 0 15.296875 6.847656 15.296875 15.296875 0 8.449218-6.847657 15.300781-15.296875 15.300781zm0 0"/><path d="m112.9375 271.296875h-34.464844c-8.449218 0-15.296875-6.851563-15.296875-15.300781 0-8.449219 6.847657-15.296875 15.296875-15.296875h34.464844c8.449219 0 15.296875 6.847656 15.296875 15.296875 0 8.449218-6.847656 15.300781-15.296875 15.300781zm0 0"/><path d="m191.410156 271.296875h-34.464844c-8.449218 0-15.296874-6.851563-15.296874-15.300781 0-8.449219 6.847656-15.296875 15.296874-15.296875h34.464844c8.449219 0 15.296875 6.847656 15.296875 15.296875 0 8.449218-6.847656 15.300781-15.296875 15.300781zm0 0"/><path d="m240.699219 512v-34.464844c0-8.449218 6.847656-15.296875 15.296875-15.296875 8.449218 0 15.300781 6.847657 15.300781 15.296875v34.464844zm0 0"/><path d="m255.996094 448.824219c-8.449219 0-15.296875-6.847657-15.296875-15.296875v-34.464844c0-8.449219 6.847656-15.296875 15.296875-15.296875 8.449218 0 15.300781 6.847656 15.300781 15.296875v34.464844c0 8.449218-6.851563 15.296875-15.300781 15.296875zm0 0"/><path d="m255.996094 370.351562c-8.449219 0-15.296875-6.847656-15.296875-15.296874v-34.464844c0-8.449219 6.847656-15.296875 15.296875-15.296875 8.449218 0 15.300781 6.847656 15.300781 15.296875v34.464844c0 8.449218-6.851563 15.296874-15.300781 15.296874zm0 0"/></g><path d="m512 271.300781h-34.464844c-8.449218 0-15.296875-6.847656-15.296875-15.296875 0-8.449218 6.847657-15.300781 15.296875-15.300781h34.464844zm0 0" fill="#bec3d2"/><path d="m433.527344 271.300781h-34.464844c-8.449219 0-15.296875-6.847656-15.296875-15.296875 0-8.449218 6.847656-15.300781 15.296875-15.300781h34.464844c8.449218 0 15.296875 6.851563 15.296875 15.300781 0 8.449219-6.847657 15.296875-15.296875 15.296875zm0 0" fill="#bec3d2"/><path d="m355.054688 271.300781h-34.464844c-8.449219 0-15.296875-6.847656-15.296875-15.296875 0-8.449218 6.847656-15.300781 15.296875-15.300781h34.464844c8.449218 0 15.296874 6.851563 15.296874 15.300781 0 8.449219-6.847656 15.296875-15.296874 15.296875zm0 0" fill="#bec3d2"/><path d="m256.003906 49.761719c-8.449218 0-15.300781-6.851563-15.300781-15.300781v-34.460938h30.597656v34.460938c0 8.449218-6.847656 15.300781-15.296875 15.300781zm0 0" fill="#dce1eb"/><path d="m256.003906 128.234375c-8.449218 0-15.300781-6.851563-15.300781-15.300781v-34.460938c0-8.449218 6.851563-15.300781 15.300781-15.300781 8.449219 0 15.296875 6.851563 15.296875 15.300781v34.460938c0 8.453125-6.847656 15.300781-15.296875 15.300781zm0 0" fill="#dce1eb"/><path d="m256.003906 206.707031c-8.449218 0-15.300781-6.851562-15.300781-15.296875v-34.464844c0-8.449218 6.851563-15.300781 15.300781-15.300781 8.449219 0 15.296875 6.851563 15.296875 15.300781v34.464844c0 8.445313-6.847656 15.296875-15.296875 15.296875zm0 0" fill="#dce1eb"/><path d="m392.742188 159.941406c-8.449219 0-15.296876-6.851562-15.296876-15.296875v-46.75c0-8.449219 6.847657-15.300781 15.296876-15.300781 8.449218 0 15.300781 6.851562 15.300781 15.300781v46.75c0 8.445313-6.851563 15.296875-15.300781 15.296875zm0 0" fill="#555a66"/><path d="m392.742188 113.191406c-24.738282 0-44.863282-20.125-44.863282-44.863281s20.125-44.863281 44.863282-44.863281c24.738281 0 44.863281 20.125 44.863281 44.863281s-20.125 44.863281-44.863281 44.863281zm0 0" fill="#ff7d81"/><path d="m451.871094 159.941406c-8.449219 0-15.296875-6.851562-15.296875-15.296875v-46.75c0-8.449219 6.847656-15.300781 15.296875-15.300781 8.449218 0 15.300781 6.851562 15.300781 15.300781v46.75c0 8.445313-6.851563 15.296875-15.300781 15.296875zm0 0" fill="#23272b"/><path d="m451.871094 113.191406c-24.738282 0-44.863282-20.125-44.863282-44.863281s20.125-44.863281 44.863282-44.863281c24.738281 0 44.863281 20.125 44.863281 44.863281s-20.125 44.863281-44.863281 44.863281zm0 0" fill="#ff3da8"/><path d="m255.996094 462.238281v49.761719h15.300781v-34.464844c0-8.449218-6.851563-15.296875-15.300781-15.296875zm0 0" fill="#bec3d2"/><path d="m255.996094 383.765625v65.058594c8.449218 0 15.300781-6.847657 15.300781-15.296875v-34.464844c0-8.449219-6.851563-15.296875-15.300781-15.296875zm0 0" fill="#bec3d2"/><path d="m255.996094 305.292969v65.058593c8.449218 0 15.300781-6.847656 15.300781-15.296874v-34.464844c0-8.449219-6.851563-15.296875-15.300781-15.296875zm0 0" fill="#bec3d2"/><path d="m255.996094 49.761719h.007812c8.445313 0 15.296875-6.851563 15.296875-15.300781v-34.460938h-15.304687zm0 0" fill="#bec3d2"/><path d="m256.003906 63.171875c-.003906 0-.003906 0-.007812 0v65.0625h.007812c8.449219 0 15.296875-6.851563 15.296875-15.300781v-34.460938c0-8.449218-6.847656-15.300781-15.296875-15.300781zm0 0" fill="#bec3d2"/><path d="m256.003906 141.644531c-.003906 0-.003906 0-.007812 0v65.0625h.007812c8.449219 0 15.296875-6.851562 15.296875-15.296875v-34.464844c0-8.449218-6.847656-15.300781-15.296875-15.300781zm0 0" fill="#bec3d2"/><path d="m68.339844 469.222656v-24.265625c0-8.449219 6.851562-15.296875 15.300781-15.296875s15.296875 6.847656 15.296875 15.296875v24.265625zm0 0" fill="#7e8596"/><path d="m83.640625 429.660156v39.5625h15.296875v-24.265625c0-8.449219-6.847656-15.296875-15.296875-15.296875zm0 0" fill="#555a66"/></svg>