<svg height="512pt" viewBox="-65 0 512 512" width="512pt" xmlns="http://www.w3.org/2000/svg"><path d="m325.820312 512h-269.527343c-31.039063 0-56.292969-25.253906-56.292969-56.292969v-399.414062c0-31.039063 25.253906-56.292969 56.292969-56.292969h269.527343c31.042969 0 56.292969 25.253906 56.292969 56.292969v399.414062c0 31.039063-25.25 56.292969-56.292969 56.292969zm0 0" fill="#555a66"/><path d="m325.820312 0h-135.195312v512h135.199219c31.039062 0 56.292969-25.253906 56.292969-56.292969v-399.414062c-.003907-31.039063-25.253907-56.292969-56.296876-56.292969zm0 0" fill="#23272b"/><path d="m191.058594 455.164062c-56.847656 0-103.09375-46.246093-103.09375-103.09375 0-32.847656 15.300781-63.105468 41.335937-82.539062v-150.9375c0-34.054688 27.703125-61.757812 61.753907-61.757812 34.054687 0 61.757812 27.703124 61.757812 61.757812v150.9375c26.035156 19.429688 41.335938 49.691406 41.335938 82.539062.003906 56.847657-46.246094 103.09375-103.089844 103.09375zm0 0" fill="#fff"/><path d="m252.8125 269.53125v-150.9375c0-34.054688-27.703125-61.757812-61.753906-61.757812-.148438 0-.289063.007812-.433594.011718v398.3125c.144531 0 .289062.003906.433594.003906 56.84375 0 103.09375-46.246093 103.09375-103.09375 0-32.847656-15.300782-63.109374-41.339844-82.539062zm0 0" fill="#dce1eb"/><path d="m206.296875 305.390625v-182.636719c0-8.417968-6.824219-15.238281-15.238281-15.238281-8.417969 0-15.238282 6.820313-15.238282 15.238281v182.636719c-19.644531 6.429687-33.875 24.917969-33.875 46.679687 0 27.082032 22.03125 49.113282 49.113282 49.113282 27.078125 0 49.109375-22.03125 49.109375-49.113282 0-21.761718-14.230469-40.25-33.871094-46.679687zm0 0" fill="#ff7d81"/><path d="m206.296875 305.390625v-182.636719c0-8.417968-6.824219-15.238281-15.238281-15.238281-.148438 0-.289063.015625-.433594.019531v293.636719c.144531 0 .289062.011719.433594.011719 27.078125 0 49.109375-22.03125 49.109375-49.113282 0-21.761718-14.230469-40.25-33.871094-46.679687zm0 0" fill="#ff3da8"/><g fill="#fff8ab"><path d="m99.242188 87.3125h-29.003907c-8.417969 0-15.238281-6.824219-15.238281-15.238281 0-8.417969 6.820312-15.238281 15.238281-15.238281h29.003907c8.414062 0 15.238281 6.820312 15.238281 15.238281 0 8.414062-6.824219 15.238281-15.238281 15.238281zm0 0"/><path d="m99.242188 142.269531h-29.003907c-8.417969 0-15.238281-6.824219-15.238281-15.238281s6.820312-15.238281 15.238281-15.238281h29.003907c8.414062 0 15.238281 6.824219 15.238281 15.238281s-6.824219 15.238281-15.238281 15.238281zm0 0"/><path d="m99.242188 197.226562h-29.003907c-8.417969 0-15.238281-6.820312-15.238281-15.238281 0-8.414062 6.820312-15.238281 15.238281-15.238281h29.003907c8.414062 0 15.238281 6.824219 15.238281 15.238281 0 8.417969-6.824219 15.238281-15.238281 15.238281zm0 0"/><path d="m99.242188 252.183594h-29.003907c-8.417969 0-15.238281-6.820313-15.238281-15.234375 0-8.417969 6.820312-15.238281 15.238281-15.238281h29.003907c8.414062 0 15.238281 6.820312 15.238281 15.238281 0 8.414062-6.824219 15.234375-15.238281 15.234375zm0 0"/></g><path d="m319.015625 87.3125h-29.003906c-8.414063 0-15.238281-6.824219-15.238281-15.238281 0-8.417969 6.824218-15.238281 15.238281-15.238281h29.003906c8.414063 0 15.238281 6.820312 15.238281 15.238281 0 8.414062-6.824218 15.238281-15.238281 15.238281zm0 0" fill="#fff04a"/><path d="m319.015625 142.269531h-29.003906c-8.414063 0-15.238281-6.824219-15.238281-15.238281s6.824218-15.238281 15.238281-15.238281h29.003906c8.414063 0 15.238281 6.824219 15.238281 15.238281s-6.824218 15.238281-15.238281 15.238281zm0 0" fill="#fff04a"/><path d="m319.015625 197.226562h-29.003906c-8.414063 0-15.238281-6.820312-15.238281-15.238281 0-8.414062 6.824218-15.238281 15.238281-15.238281h29.003906c8.414063 0 15.238281 6.824219 15.238281 15.238281 0 8.417969-6.824218 15.238281-15.238281 15.238281zm0 0" fill="#fff04a"/><path d="m319.015625 252.183594h-29.003906c-8.414063 0-15.238281-6.820313-15.238281-15.234375 0-8.417969 6.824218-15.238281 15.238281-15.238281h29.003906c8.414063 0 15.238281 6.820312 15.238281 15.238281 0 8.414062-6.824218 15.234375-15.238281 15.234375zm0 0" fill="#fff04a"/></svg>