<svg height="512pt" viewBox="0 -134 512 512" width="512pt" xmlns="http://www.w3.org/2000/svg"><path d="m85.53125 244.882812c-8.414062 0-15.238281-6.820312-15.238281-15.238281v-58.542969c0-8.414062 6.824219-15.234374 15.238281-15.234374 8.417969 0 15.238281 6.820312 15.238281 15.234374v58.542969c0 8.417969-6.820312 15.238281-15.238281 15.238281zm0 0" fill="#7e8596"/><path d="m199.792969 244.882812c-8.414063 0-15.238281-6.820312-15.238281-15.238281v-58.542969c0-8.414062 6.824218-15.234374 15.238281-15.234374 8.417969 0 15.238281 6.820312 15.238281 15.234374v58.542969c0 8.417969-6.820312 15.238281-15.238281 15.238281zm0 0" fill="#7e8596"/><g fill="#555a66"><path d="m314.054688 244.882812c-8.414063 0-15.238282-6.820312-15.238282-15.238281v-58.542969c0-8.414062 6.824219-15.234374 15.238282-15.234374 8.417968 0 15.238281 6.820312 15.238281 15.234374v58.542969c0 8.417969-6.820313 15.238281-15.238281 15.238281zm0 0"/><path d="m428.320312 244.882812c-8.414062 0-15.238281-6.820312-15.238281-15.238281v-58.542969c0-8.414062 6.824219-15.234374 15.238281-15.234374 8.414063 0 15.238282 6.820312 15.238282 15.234374v58.542969c0 8.417969-6.824219 15.238281-15.238282 15.238281zm0 0"/><path d="m496.761719 244.882812h-479.671875c-8.417969 0-15.238282-6.820312-15.238282-15.238281 0-8.414062 6.820313-15.238281 15.238282-15.238281h479.671875c8.414062 0 15.238281 6.824219 15.238281 15.238281 0 8.417969-6.824219 15.238281-15.238281 15.238281zm0 0"/></g><path d="m496.761719 214.40625h-239.835938v30.476562h239.835938c8.414062 0 15.238281-6.820312 15.238281-15.238281 0-8.414062-6.824219-15.238281-15.238281-15.238281zm0 0" fill="#23272b"/><path d="m496.757812 186.339844h-438.851562c-31.929688 0-57.90625-25.972656-57.90625-57.902344 0-7.832031.707031-15.652344 2.097656-23.242188 1.328125-7.234374 7.632813-12.484374 14.988282-12.484374h41.824218c23.507813 0 44.882813-14.757813 53.21875-36.730469l16.726563-45.953125c2.191406-6.019532 7.914062-10.027344 14.320312-10.027344h353.582031c8.417969 0 15.238282 6.824219 15.238282 15.238281v155.867188c0 8.414062-6.820313 15.234375-15.238282 15.234375zm0 0" fill="#fff8ab"/><path d="m58.910156 123.183594h-41.8125c-4.519531 0-8.808594-2.007813-11.703125-5.476563-2.894531-3.472656-4.097656-8.050781-3.289062-12.496093 4.683593-25.671876 16.960937-49.046876 35.503906-67.589844 24.261719-24.261719 56.511719-37.621094 90.816406-37.621094h14.75c4.972657 0 9.628907 2.425781 12.480469 6.496094 2.855469 4.074218 3.539062 9.28125 1.839844 13.953125l-16.761719 46.050781c-.023437.054688-.042969.113281-.066406.171875-12.765625 33.800781-45.621094 56.511719-81.757813 56.511719zm0 0" fill="#a5f6ff"/><path d="m496.757812 0h-239.832031v186.339844h239.832031c8.417969 0 15.238282-6.820313 15.238282-15.238282v-155.863281c0-8.414062-6.820313-15.238281-15.238282-15.238281zm0 0" fill="#fff04a"/><path d="m230.984375 90.144531h-45.90625c-8.414063 0-15.238281-6.820312-15.238281-15.238281 0-8.414062 6.824218-15.238281 15.238281-15.238281h45.90625c8.414063 0 15.238281 6.824219 15.238281 15.238281 0 8.417969-6.824218 15.238281-15.238281 15.238281zm0 0" fill="#a5f6ff"/><path d="m333.757812 90.144531h-45.90625c-8.414062 0-15.238281-6.820312-15.238281-15.238281 0-8.414062 6.824219-15.238281 15.238281-15.238281h45.90625c8.414063 0 15.234376 6.824219 15.234376 15.238281 0 8.417969-6.820313 15.238281-15.234376 15.238281zm0 0" fill="#38ebff"/><path d="m436.527344 90.144531h-45.898438c-8.417968 0-15.238281-6.820312-15.238281-15.238281 0-8.414062 6.820313-15.238281 15.238281-15.238281h45.898438c8.417968 0 15.238281 6.824219 15.238281 15.238281 0 8.417969-6.820313 15.238281-15.238281 15.238281zm0 0" fill="#38ebff"/></svg>