<svg height="512pt" viewBox="0 0 512 512.00049" width="512pt" xmlns="http://www.w3.org/2000/svg"><path d="m420.582031 442.257812c-.769531-.765624-1.464843-1.625-2.070312-2.570312l-111.03125-172.699219c-3.921875-6.101562-3.0625-14.117187 2.070312-19.246093l74.960938-74.964844c3.691406-3.691406 9.003906-5.265625 14.113281-4.179688 5.105469 1.085938 9.320312 4.683594 11.191406 9.558594l87.582032 227.972656c1.46875 3.824219 1.355468 8.074219-.3125 11.8125-1.667969 3.742188-4.753907 6.664063-8.578126 8.125l-51.515624 19.6875c-5.769532 2.207032-12.183594.730469-16.410157-3.496094zm0 0" fill="#0160ad"/><path d="m69.734375 91.414062c-4.226563-4.230468-5.699219-10.640624-3.496094-16.410156l19.6875-51.515625c1.460938-3.824219 4.386719-6.910156 8.125-8.578125 3.742188-1.667968 7.992188-1.78125 11.8125-.3125l227.976563 87.582032c4.875 1.871093 8.472656 6.085937 9.554687 11.191406 1.085938 5.109375-.488281 10.421875-4.179687 14.113281l-74.960938 74.960937c-5.132812 5.132813-13.144531 5.992188-19.25 2.066407l-172.699218-111.03125c-.941407-.605469-1.800782-1.300781-2.570313-2.066407zm0 0" fill="#4a7aff"/><path d="m173.722656 507.488281c-.738281-.738281-1.410156-1.5625-2.003906-2.464843l-65.183594-99.558594-99.558594-65.1875c-6.0625-3.96875-8.546874-11.632813-5.960937-18.410156l18.03125-47.179688c2.8125-7.355469 10.710937-11.410156 18.324219-9.414062l95.398437 25.03125 271.914063-271.917969c24.515625-24.515625 64.40625-24.515625 88.921875 0s24.515625 64.40625 0 88.921875l-271.910157 271.914062 25.03125 95.40625c2 7.613282-2.058593 15.511719-9.410156 18.324219l-47.183594 18.03125c-5.769531 2.203125-12.179687.730469-16.410156-3.496094zm0 0" fill="#a5f6ff"/><path d="m246.726562 474.628906-25.03125-95.40625 271.910157-271.914062c24.515625-24.515625 24.515625-64.40625 0-88.921875l-387.074219 387.078125h.003906l65.183594 99.558594c.59375.902343 1.265625 1.726562 2.003906 2.464843 4.230469 4.226563 10.640625 5.699219 16.40625 3.496094l47.183594-18.035156c7.355469-2.808594 11.414062-10.707031 9.414062-18.320313zm0 0" fill="#38ebff"/></svg>