<svg height="512pt" viewBox="0 -54 512 512" width="512pt" xmlns="http://www.w3.org/2000/svg"><path d="m333.460938 350.960938c-8.382813 0-15.179688-6.792969-15.179688-15.175782 0-69.546875 56.582031-126.125 126.125-126.125 8.382812 0 15.179688 6.796875 15.179688 15.179688 0 8.382812-6.796876 15.175781-15.179688 15.175781-52.804688 0-95.769531 42.960937-95.769531 95.769531 0 8.382813-6.792969 15.175782-15.175781 15.175782zm0 0" fill="#555a66"/><path d="m67.59375 78.675781c-8.382812 0-15.179688 6.792969-15.179688 15.175781v138.625c0 8.382813 6.796876 15.175782 15.179688 15.175782 34.703125 0 62.9375-28.230469 62.9375-62.9375v-43.101563c0-34.707031-28.234375-62.9375-62.9375-62.9375zm0 0" fill="#a5f6ff"/><path d="m444.40625 350.960938h-376.8125c-8.382812 0-15.179688-6.792969-15.179688-15.175782v-320.605468c0-8.382813 6.796876-15.179688 15.179688-15.179688h52.414062c8.382813 0 15.175782 6.796875 15.175782 15.179688 0 8.378906-6.792969 15.175781-15.175782 15.175781h-37.238281v290.253906h361.636719c8.382812 0 15.179688 6.792969 15.179688 15.175781 0 8.382813-6.796876 15.175782-15.179688 15.175782zm0 0" fill="#7e8596"/><path d="m444.40625 296.644531h-376.8125c-8.382812 0-15.179688 6.796875-15.179688 15.179688v47.921875c0 8.382812 6.796876 15.179687 15.179688 15.179687h376.8125c8.382812 0 15.179688-6.796875 15.179688-15.179687v-47.921875c0-8.382813-6.796876-15.179688-15.179688-15.179688zm0 0" fill="#ff7d81"/><path d="m120.007812 335.785156c0 28.949219-23.46875 52.414063-52.414062 52.414063-28.949219 0-52.414062-23.464844-52.414062-52.414063 0-28.949218 23.464843-52.414062 52.414062-52.414062 28.945312 0 52.414062 23.464844 52.414062 52.414062zm0 0" fill="#afb4c8"/><path d="m67.59375 403.378906c-37.273438 0-67.59375-30.324218-67.59375-67.59375 0-37.269531 30.320312-67.59375 67.59375-67.59375 37.269531 0 67.589844 30.324219 67.589844 67.59375 0 37.269532-30.320313 67.59375-67.589844 67.59375zm0-104.828125c-20.535156 0-37.238281 16.703125-37.238281 37.234375s16.703125 37.238282 37.238281 37.238282c20.53125 0 37.234375-16.707032 37.234375-37.238282s-16.703125-37.234375-37.234375-37.234375zm0 0" fill="#555a66"/><path d="m444.40625 296.644531h-188.40625v78.28125h188.40625c8.382812 0 15.179688-6.796875 15.179688-15.179687v-47.921875c0-8.382813-6.796876-15.179688-15.179688-15.179688zm0 0" fill="#ff3da8"/><path d="m496.820312 335.785156c0 28.949219-23.464843 52.414063-52.414062 52.414063-28.945312 0-52.414062-23.464844-52.414062-52.414063 0-28.949218 23.46875-52.414062 52.414062-52.414062 28.949219 0 52.414062 23.464844 52.414062 52.414062zm0 0" fill="#7e8596"/><path d="m444.40625 403.378906c-37.269531 0-67.589844-30.324218-67.589844-67.59375 0-37.269531 30.320313-67.59375 67.589844-67.59375 37.273438 0 67.59375 30.324219 67.59375 67.59375 0 37.269532-30.320312 67.59375-67.59375 67.59375zm0-104.828125c-20.53125 0-37.234375 16.703125-37.234375 37.234375s16.703125 37.238282 37.234375 37.238282c20.535156 0 37.238281-16.707032 37.238281-37.238282s-16.703125-37.234375-37.238281-37.234375zm0 0" fill="#23272b"/></svg>