<svg height="512pt" viewBox="0 -29 512 512" width="512pt" xmlns="http://www.w3.org/2000/svg"><path d="m256 151.050781c-8.304688 0-15.039062-6.734375-15.039062-15.039062v-89.992188c0-8.304687 6.734374-15.039062 15.039062-15.039062s15.039062 6.734375 15.039062 15.039062v89.992188c0 8.304687-6.734374 15.039062-15.039062 15.039062zm0 0" fill="#7e8596"/><path d="m256 30.980469v120.070312c8.304688 0 15.039062-6.734375 15.039062-15.039062v-89.992188c0-8.304687-6.734374-15.039062-15.039062-15.039062zm0 0" fill="#555a66"/><path d="m477.917969 208.085938h-443.835938c-8.304687 0-15.039062-6.734376-15.039062-15.039063 0-39.742187 32.335937-72.078125 72.078125-72.078125h329.757812c19.242188 0 37.34375 7.496094 50.964844 21.101562 13.621094 13.636719 21.113281 31.734376 21.113281 50.976563 0 8.304687-6.734375 15.039063-15.039062 15.039063zm0 0" fill="#fff8ab"/><path d="m420.878906 120.96875h-164.878906v87.117188h221.917969c8.304687 0 15.039062-6.734376 15.039062-15.039063 0-19.242187-7.492187-37.339844-21.113281-50.976563-13.625-13.605468-31.722656-21.101562-50.964844-21.101562zm0 0" fill="#fff04a"/><path d="m90.960938 453.589844c-8.304688 0-15.039063-6.734375-15.039063-15.039063v-56.675781c0-8.304688 6.734375-15.039062 15.039063-15.039062 8.308593 0 15.042968 6.734374 15.042968 15.039062v56.675781c0 8.304688-6.734375 15.039063-15.042968 15.039063zm0 0" fill="#7e8596"/><path d="m201.585938 453.589844c-8.304688 0-15.039063-6.734375-15.039063-15.039063v-56.675781c0-8.304688 6.734375-15.039062 15.039063-15.039062 8.304687 0 15.039062 6.734374 15.039062 15.039062v56.675781c0 8.304688-6.734375 15.039063-15.039062 15.039063zm0 0" fill="#7e8596"/><g fill="#555a66"><path d="m312.210938 453.589844c-8.308594 0-15.039063-6.734375-15.039063-15.039063v-56.675781c0-8.304688 6.730469-15.039062 15.039063-15.039062 8.304687 0 15.039062 6.734374 15.039062 15.039062v56.675781c0 8.304688-6.734375 15.039063-15.039062 15.039063zm0 0"/><path d="m422.832031 453.589844c-8.304687 0-15.039062-6.734375-15.039062-15.039063v-56.675781c0-8.304688 6.734375-15.039062 15.039062-15.039062 8.304688 0 15.039063 6.734374 15.039063 15.039062v56.675781c0 8.304688-6.730469 15.039063-15.039063 15.039063zm0 0"/><path d="m489.09375 453.589844h-464.394531c-8.304688 0-15.039063-6.734375-15.039063-15.039063 0-8.304687 6.734375-15.039062 15.039063-15.039062h464.398437c8.304688 0 15.039063 6.734375 15.039063 15.039062 0 8.304688-6.734375 15.039063-15.042969 15.039063zm0 0"/></g><path d="m489.09375 423.511719h-233.09375v30.078125h233.097656c8.304688 0 15.039063-6.734375 15.039063-15.039063 0-8.304687-6.734375-15.039062-15.042969-15.039062zm0 0" fill="#23272b"/><path d="m436.050781 396.90625h-360.101562c-31.378907 0-56.90625-25.523438-56.90625-56.898438v-62.382812c0-8.304688 6.734375-15.039062 15.039062-15.039062h443.835938c8.304687 0 15.039062 6.734374 15.039062 15.039062v62.382812c0 31.375-25.527343 56.898438-56.90625 56.898438zm0 0" fill="#4a7aff"/><path d="m477.917969 262.589844h-221.917969v134.320312h180.046875c31.378906 0 56.910156-25.527344 56.910156-56.898437v-62.382813c0-8.308594-6.734375-15.039062-15.039062-15.039062zm0 0" fill="#0160ad"/><path d="m71.070312 311.273438h-52.027343v28.734374c0 .453126.023437.894532.035156 1.34375h51.992187c8.304688 0 15.039063-6.734374 15.039063-15.039062s-6.734375-15.039062-15.039063-15.039062zm0 0" fill="#555a66"/><path d="m440.929688 311.273438c-8.304688 0-15.039063 6.734374-15.039063 15.039062s6.734375 15.039062 15.039063 15.039062h51.992187c.011719-.449218.035156-.890624.035156-1.34375v-28.734374zm0 0" fill="#23272b"/><path d="m226.496094 75.015625c-15.992188 0-29-13.007813-29-28.996094 0-15.992187 13.007812-29 29-29 15.988281 0 29 13.007813 29 29 0 15.988281-13.011719 28.996094-29 28.996094zm0 0" fill="#afb4c8"/><path d="m285.503906 75.015625c-15.992187 0-29-13.007813-29-28.996094 0-15.992187 13.007813-29 29-29 15.988282 0 29 13.007813 29 29 0 15.988281-13.011718 28.996094-29 28.996094zm0 0" fill="#7e8596"/><path d="m285.503906 1.476562c-11.308594 0-21.640625 4.242188-29.503906 11.210938-7.863281-6.96875-18.195312-11.210938-29.503906-11.210938-24.5625 0-44.542969 19.980469-44.542969 44.542969 0 24.558594 19.980469 44.542969 44.542969 44.542969 11.308594 0 21.640625-4.242188 29.503906-11.214844 7.863281 6.972656 18.195312 11.214844 29.503906 11.214844 24.558594 0 44.542969-19.984375 44.542969-44.542969 0-24.5625-19.980469-44.542969-44.542969-44.542969zm-59.007812 59.007813c-7.976563 0-14.464844-6.488281-14.464844-14.464844 0-7.976562 6.488281-14.464843 14.464844-14.464843 7.976562 0 14.464844 6.488281 14.464844 14.464843 0 7.976563-6.488282 14.464844-14.464844 14.464844zm59.007812 0c-7.976562 0-14.464844-6.488281-14.464844-14.464844 0-7.976562 6.488282-14.464843 14.464844-14.464843 7.976563 0 14.464844 6.488281 14.464844 14.464843 0 7.976563-6.488281 14.464844-14.464844 14.464844zm0 0" fill="#7e8596"/><path d="m496.960938 30.078125h-481.921876c-8.304687 0-15.039062-6.734375-15.039062-15.039063 0-8.304687 6.734375-15.039062 15.039062-15.039062h481.921876c8.304687 0 15.039062 6.734375 15.039062 15.039062 0 8.304688-6.734375 15.039063-15.039062 15.039063zm0 0" fill="#555a66"/><path d="m19.042969 193.046875h473.914062v84.578125h-473.914062zm0 0" fill="#a5f6ff"/><path d="m98.027344 193.046875h78.988281v84.578125h-78.988281zm0 0" fill="#38ebff"/><path d="m177.015625 193.046875h78.984375v84.578125h-78.984375zm0 0" fill="#a5f6ff"/><path d="m256 193.046875h78.984375v84.578125h-78.984375zm0 0" fill="#38ebff"/><path d="m413.972656 193.046875h78.984375v84.578125h-78.984375zm0 0" fill="#38ebff"/><path d="m334.984375 193.046875h78.988281v84.578125h-78.988281zm0 0" fill="#4ab8f7"/><path d="m285.503906 1.476562c-11.308594 0-21.640625 4.242188-29.503906 11.210938v66.660156c7.863281 6.972656 18.195312 11.214844 29.503906 11.214844 24.5625 0 44.542969-19.984375 44.542969-44.542969 0-24.5625-19.980469-44.542969-44.542969-44.542969zm0 59.007813c-7.976562 0-14.464844-6.488281-14.464844-14.464844 0-7.976562 6.488282-14.464843 14.464844-14.464843 7.976563 0 14.464844 6.488281 14.464844 14.464843 0 7.976563-6.488281 14.464844-14.464844 14.464844zm0 0" fill="#555a66"/><path d="m496.960938 0h-240.960938v30.078125h240.960938c8.304687 0 15.039062-6.734375 15.039062-15.039063 0-8.304687-6.734375-15.039062-15.039062-15.039062zm0 0" fill="#23272b"/></svg>