<svg height="512pt" viewBox="0 -81 512 512" width="512pt" xmlns="http://www.w3.org/2000/svg"><path d="m256 138.117188c-8.304688 0-15.039062-6.730469-15.039062-15.039063v-81.363281c0-8.304688 6.734374-15.039063 15.039062-15.039063s15.039062 6.734375 15.039062 15.039063v81.363281c0 8.308594-6.734374 15.039063-15.039062 15.039063zm0 0" fill="#7e8596"/><path d="m254.328125 41.714844c0 13.808594-11.195313 25.003906-25.003906 25.003906-13.808594 0-25.003907-11.195312-25.003907-25.003906s11.195313-25.003906 25.003907-25.003906c13.808593 0 25.003906 11.195312 25.003906 25.003906zm0 0" fill="#afb4c8"/><path d="m307.679688 41.714844c0 13.808594-11.195313 25.003906-25.003907 25.003906-13.808593 0-25.003906-11.195312-25.003906-25.003906s11.195313-25.003906 25.003906-25.003906c13.808594 0 25.003907 11.195312 25.003907 25.003906zm0 0" fill="#7e8596"/><path d="m282.675781 0c-10.136719 0-19.4375 3.636719-26.675781 9.671875-7.238281-6.035156-16.539062-9.671875-26.675781-9.671875-23 0-41.714844 18.710938-41.714844 41.714844 0 23 18.714844 41.714844 41.714844 41.714844 10.136719 0 19.4375-3.640626 26.675781-9.675782 7.238281 6.035156 16.539062 9.675782 26.675781 9.675782 23 0 41.714844-18.714844 41.714844-41.714844 0-23.003906-18.714844-41.714844-41.714844-41.714844zm-53.351562 53.351562c-6.414063 0-11.636719-5.222656-11.636719-11.636718 0-6.414063 5.222656-11.636719 11.636719-11.636719 6.417969 0 11.636719 5.222656 11.636719 11.636719 0 6.414062-5.21875 11.636718-11.636719 11.636718zm53.351562 0c-6.417969 0-11.636719-5.222656-11.636719-11.636718 0-6.414063 5.21875-11.636719 11.636719-11.636719 6.414063 0 11.636719 5.222656 11.636719 11.636719 0 6.414062-5.222656 11.636718-11.636719 11.636718zm0 0" fill="#7e8596"/><g fill="#555a66"><path d="m496.960938 30.078125h-481.921876c-8.304687 0-15.039062-6.734375-15.039062-15.039063 0-8.304687 6.734375-15.039062 15.039062-15.039062h481.921876c8.304687 0 15.039062 6.734375 15.039062 15.039062 0 8.304688-6.734375 15.039063-15.039062 15.039063zm0 0"/><path d="m271.039062 123.078125v-81.363281c0-8.304688-6.734374-15.039063-15.039062-15.039063v111.441407c8.304688 0 15.039062-6.730469 15.039062-15.039063zm0 0"/><path d="m282.675781 83.429688c23 0 41.714844-18.714844 41.714844-41.714844s-18.714844-41.714844-41.714844-41.714844c-10.136719 0-19.4375 3.640625-26.675781 9.675781v64.082031c7.238281 6.03125 16.539062 9.671876 26.675781 9.671876zm0-53.351563c6.414063 0 11.636719 5.21875 11.636719 11.636719 0 6.414062-5.222656 11.636718-11.636719 11.636718-6.417969 0-11.636719-5.222656-11.636719-11.636718 0-6.417969 5.21875-11.636719 11.636719-11.636719zm0 0"/></g><path d="m496.960938 0h-240.960938v30.078125h240.960938c8.304687 0 15.039062-6.734375 15.039062-15.039063 0-8.304687-6.734375-15.039062-15.039062-15.039062zm0 0" fill="#23272b"/><path d="m389.601562 350.847656h-267.203124c-8.308594 0-15.039063-6.734375-15.039063-15.039062v-90.195313c0-8.308593 6.730469-15.039062 15.039063-15.039062h267.207031c8.304687 0 15.039062 6.730469 15.039062 15.039062v90.195313c-.003906 8.304687-6.734375 15.039062-15.042969 15.039062zm0 0" fill="#ff7d81"/><path d="m389.601562 230.574219h-133.601562v120.273437h133.601562c8.308594 0 15.039063-6.734375 15.039063-15.039062v-90.195313c0-8.308593-6.730469-15.039062-15.039063-15.039062zm0 0" fill="#ff3da8"/><path d="m389.601562 187.472656h-267.203124c-8.308594 0-15.039063-6.734375-15.039063-15.039062v-8.1875c0-30.992188 25.210937-56.207032 56.207031-56.207032h184.871094c30.992188 0 56.207031 25.214844 56.207031 56.207032v8.1875c-.003906 8.304687-6.734375 15.039062-15.042969 15.039062zm0 0" fill="#ff7d81"/><path d="m348.433594 108.039062h-92.433594v79.433594h133.601562c8.308594 0 15.039063-6.734375 15.039063-15.039062v-8.183594c0-30.996094-25.210937-56.210938-56.207031-56.210938zm0 0" fill="#ff3da8"/><path d="m107.359375 172.433594h297.285156v73.179687h-297.285156zm0 0" fill="#38ebff"/><path d="m181.679688 172.433594h74.320312v73.179687h-74.320312zm0 0" fill="#a5f6ff"/><path d="m256 172.433594h74.320312v73.179687h-74.320312zm0 0" fill="#38ebff"/><path d="m330.320312 172.433594h74.320313v73.179687h-74.320313zm0 0" fill="#4ab8f7"/></svg>