<svg height="512pt" viewBox="0 -141 512 512" width="512pt" xmlns="http://www.w3.org/2000/svg"><path d="m496.703125 0h-481.40625c-8.445313 0-15.296875 6.851562-15.296875 15.296875v169.3125c0 8.449219 6.851562 15.300781 15.296875 15.300781h481.40625c8.445313 0 15.296875-6.851562 15.296875-15.300781v-169.3125c0-8.445313-6.847656-15.296875-15.296875-15.296875zm0 0" fill="#afb4c8"/><path d="m496.703125 0h-240.703125v199.910156h240.703125c8.445313 0 15.296875-6.851562 15.296875-15.300781v-169.3125c0-8.445313-6.847656-15.296875-15.296875-15.296875zm0 0" fill="#7e8596"/><path d="m445.707031 50.996094h-379.414062c-8.449219 0-15.296875 6.851562-15.296875 15.300781v67.320313c0 8.449218 6.847656 15.296874 15.296875 15.296874h379.414062c8.449219 0 15.296875-6.847656 15.296875-15.296874v-67.320313c0-8.453125-6.847656-15.300781-15.296875-15.300781zm0 0" fill="#555a66"/><path d="m445.707031 50.996094h-189.707031v97.917968h189.707031c8.449219 0 15.296875-6.847656 15.296875-15.296874v-67.320313c0-8.453125-6.847656-15.300781-15.296875-15.300781zm0 0" fill="#23272b"/><path d="m325.007812 50.996094h-208.734374v163.867187c0 8.636719 7 15.636719 15.636718 15.636719h248.179688c8.636718 0 15.636718-7 15.636718-15.636719v-163.867187zm0 0" fill="#ff7d81"/><path d="m256 50.996094v179.503906h124.089844c8.636718 0 15.636718-7 15.636718-15.636719v-163.867187zm0 0" fill="#ff3da8"/><path d="m186.992188 50.996094c0 39.050781-31.667969 70.722656-70.71875 70.722656v-70.722656zm0 0" fill="#fff8ab"/><path d="m395.726562 50.996094v70.722656c-39.050781 0-70.71875-31.671875-70.71875-70.722656zm0 0" fill="#fff04a"/><path d="m395.726562 159.78125v55.082031c0 8.636719-7 15.636719-15.636718 15.636719h-55.082032c0-39.050781 31.667969-70.71875 70.71875-70.71875zm0 0" fill="#fff04a"/><path d="m186.992188 230.5h-55.082032c-8.636718 0-15.636718-7-15.636718-15.636719v-55.082031c39.050781 0 70.71875 31.667969 70.71875 70.71875zm0 0" fill="#fff8ab"/><path d="m256 78.875c-26.691406 0-47.597656 27.175781-47.597656 61.875 0 34.695312 20.90625 61.875 47.597656 61.875s47.597656-27.179688 47.597656-61.875c0-34.699219-20.90625-61.875-47.597656-61.875zm0 0" fill="#fff8ab"/><path d="m303.597656 140.75c0-34.699219-20.90625-61.875-47.597656-61.875v123.75c26.691406 0 47.597656-27.179688 47.597656-61.875zm0 0" fill="#fff04a"/></svg>