<svg height="512pt" viewBox="-45 0 512 512.00026" width="512pt" xmlns="http://www.w3.org/2000/svg"><path d="m349.058594 298.675781h-31.226563c-8.707031 0-15.765625-7.058593-15.765625-15.761719v-113.902343c0-8.707031 7.058594-15.765625 15.765625-15.765625h31.226563c40.097656 0 72.714844 32.621094 72.714844 72.714844 0 40.097656-32.617188 72.714843-72.714844 72.714843zm-15.460938-31.527343h15.460938c22.710937 0 41.1875-18.476563 41.1875-41.1875 0-22.707032-18.476563-41.183594-41.1875-41.183594h-15.460938zm0 0" fill="#23272b"/><path d="m182.832031 447.554688c-83.132812 0-150.765625-67.632813-150.765625-150.765626v-127.777343c0-8.707031 7.058594-15.765625 15.765625-15.765625h270c8.707031 0 15.765625 7.058594 15.765625 15.765625v127.777343c0 83.132813-67.632812 150.765626-150.765625 150.765626zm0 0" fill="#a5f6ff"/><path d="m317.832031 153.246094h-135v294.308594c83.132813 0 150.765625-67.632813 150.765625-150.765626v-127.777343c0-8.707031-7.058594-15.765625-15.765625-15.765625zm0 0" fill="#38ebff"/><path d="m285.457031 512h-205.246093c-44.230469 0-80.210938-35.980469-80.210938-80.210938 0-8.707031 7.058594-15.765624 15.765625-15.765624h334.136719c8.707031 0 15.765625 7.058593 15.765625 15.765624 0 44.230469-35.980469 80.210938-80.210938 80.210938zm0 0" fill="#ff7d81"/><g fill="#dce1eb"><path d="m249.308594 125.378906c-3.726563 0-7.464844-1.3125-10.46875-3.984375-1.582032-1.402343-9.683594-9.066406-13.949219-21.941406-4.113281-12.40625-5.34375-31.742187 12.160156-53.417969 6.703125-8.300781 9.003907-15.761718 7.03125-22.808594-.195312-.695312-.425781-1.359374-.675781-1.988281-2.164062-5.453125-.84375-11.679687 3.085938-16.03125 7.878906-8.722656 22.195312-6.078125 26.414062 4.890625.292969.757813.570312 1.53125.832031 2.328125 4.113281 12.40625 5.34375 31.746094-12.160156 53.417969-6.972656 8.636719-9.183594 16.382812-6.761719 23.6875 1.660156 5.003906 4.941406 8.273438 4.972656 8.300781 6.503907 5.785157 7.089844 15.75 1.304688 22.257813-3.109375 3.503906-7.4375 5.289062-11.785156 5.289062zm0 0"/><path d="m182.828125 125.378906c-3.726563 0-7.464844-1.3125-10.46875-3.980468-1.582031-1.40625-9.683594-9.070313-13.949219-21.945313-4.117187-12.40625-5.34375-31.742187 12.15625-53.417969 6.707032-8.300781 9.007813-15.761718 7.03125-22.808594-.195312-.691406-.421875-1.355468-.671875-1.988281-2.167969-5.453125-.847656-11.679687 3.085938-16.035156 7.878906-8.71875 22.195312-6.074219 26.414062 4.894531.289063.757813.570313 1.53125.832031 2.328125 4.113282 12.40625 5.34375 31.746094-12.160156 53.417969-6.972656 8.632812-9.183594 16.382812-6.761718 23.6875 1.65625 5.003906 4.941406 8.269531 4.972656 8.296875 6.503906 5.785156 7.089844 15.75 1.304687 22.257813-3.113281 3.507812-7.4375 5.292968-11.785156 5.292968zm0 0"/><path d="m116.347656 125.378906c-3.726562 0-7.464844-1.3125-10.46875-3.980468-1.582031-1.40625-9.683594-9.070313-13.953125-21.945313-4.113281-12.40625-5.339843-31.742187 12.160157-53.417969 6.707031-8.300781 9.007812-15.761718 7.03125-22.808594-.195313-.691406-.421876-1.355468-.671876-1.988281-2.167968-5.453125-.847656-11.679687 3.085938-16.035156 7.878906-8.71875 22.195312-6.074219 26.414062 4.894531.289063.757813.570313 1.53125.832032 2.328125 4.113281 12.40625 5.34375 31.746094-12.160156 53.417969-6.972657 8.632812-9.183594 16.382812-6.761719 23.6875 1.65625 5.003906 4.941406 8.269531 4.96875 8.296875 6.507812 5.785156 7.09375 15.75 1.308593 22.257813-3.113281 3.507812-7.441406 5.292968-11.785156 5.292968zm0 0"/></g><path d="m349.902344 416.023438h-167.070313v95.976562h102.625c44.230469 0 80.210938-35.980469 80.210938-80.210938 0-8.707031-7.058594-15.765624-15.765625-15.765624zm0 0" fill="#ff3da8"/></svg>