<svg height="512pt" viewBox="-70 0 512 512" width="512pt" xmlns="http://www.w3.org/2000/svg"><path d="m223.679688 135.757812c-8.484376 0-15.363282-6.875-15.363282-15.359374v-105.039063c0-8.480469 6.878906-15.359375 15.363282-15.359375 8.480468 0 15.359374 6.878906 15.359374 15.359375v105.039063c0 8.484374-6.878906 15.359374-15.359374 15.359374zm0 0" fill="#dce1eb"/><path d="m289.933594 135.757812c-8.484375 0-15.363282-6.875-15.363282-15.359374v-105.039063c0-8.480469 6.878907-15.359375 15.363282-15.359375 8.480468 0 15.359375 6.878906 15.359375 15.359375v105.039063c0 8.484374-6.878907 15.359374-15.359375 15.359374zm0 0" fill="#dce1eb"/><path d="m290.691406 511.992188c-24.253906.417968-44.101562-19.851563-44.101562-44.105469v-256.597657c-23.53125-14.796874-38.273438-40.957031-38.273438-69.140624v-37.109376h163.230469v37.109376c0 28.179687-14.738281 54.339843-38.265625 69.140624v257.367188c0 23.644531-19.035156 42.933594-42.589844 43.335938zm0 0" fill="#ff7d81"/><path d="m356.1875 135.757812c-8.484375 0-15.359375-6.875-15.359375-15.359374v-105.039063c0-8.480469 6.875-15.359375 15.359375-15.359375 8.480469 0 15.359375 6.878906 15.359375 15.359375v105.039063c0 8.484374-6.875 15.359374-15.359375 15.359374zm0 0" fill="#bec3d2"/><path d="m84.648438 254.5c-47.464844 0-84.648438-55.894531-84.648438-127.25s37.179688-127.25 84.648438-127.25c8.484374 0 15.359374 6.878906 15.359374 15.359375v223.78125c0 8.484375-6.875 15.359375-15.359374 15.359375zm0 0" fill="#dce1eb"/><path d="m84.648438 0c-9.851563 0-19.257813 2.414062-27.984376 6.871094v240.757812c8.722657 4.457032 18.132813 6.871094 27.984376 6.871094 8.484374 0 15.359374-6.875 15.359374-15.359375v-223.78125c0-8.480469-6.875-15.359375-15.359374-15.359375zm0 0" fill="#bec3d2"/><path d="m56.691406 512c-.53125 0-1.0625-.011719-1.59375-.027344-23.429687-.832031-41.78125-20.15625-41.78125-43.988281v-172.871094c0-39.328125 32-71.328125 71.332032-71.332031 4.074218 0 7.980468 1.617188 10.859374 4.496094 2.882813 2.882812 4.5 6.789062 4.5 10.863281v229.511719c0 11.871094-4.707031 22.949218-13.246093 31.191406-8.15625 7.871094-18.785157 12.15625-30.070313 12.15625zm0 0" fill="#fff8ab"/><path d="m289.933594 0c-.386719 0-.765625.03125-1.148438.0585938v135.6445312c.378906.027344.757813.054687 1.148438.054687 8.480468 0 15.359375-6.875 15.359375-15.359374v-105.039063c0-8.480469-6.878907-15.359375-15.359375-15.359375zm0 0" fill="#bec3d2"/><path d="m288.789062 511.972656c.628907.019532 1.261719.03125 1.902344.019532 23.554688-.402344 42.589844-19.691407 42.589844-43.339844v-257.367188c23.527344-14.796875 38.265625-40.957031 38.265625-69.140625v-37.105469h-82.757813zm0 0" fill="#ff3da8"/><path d="m84.648438 223.78125c-9.929688 0-19.386719 2.046875-27.984376 5.726562v282.492188h.027344c11.285156 0 21.914063-4.285156 30.070313-12.15625 8.542969-8.242188 13.246093-19.320312 13.246093-31.191406v-229.511719c0-4.074219-1.617187-7.980469-4.5-10.863281-2.878906-2.878906-6.785156-4.496094-10.859374-4.496094zm0 0" fill="#fff04a"/></svg>