<svg height="512pt" viewBox="0 -68 512 511" width="512pt" xmlns="http://www.w3.org/2000/svg"><path d="m58.960938 85.972656h-28.554688v-19.257812c0-8.394532-6.808594-15.203125-15.203125-15.203125s-15.203125 6.808593-15.203125 15.203125v68.917968c0 8.394532 6.808594 15.203126 15.203125 15.203126s15.203125-6.808594 15.203125-15.203126v-19.257812h28.554688c8.394531 0 15.199218-6.804688 15.199218-15.203125 0-8.394531-6.804687-15.199219-15.199218-15.199219zm0 0" fill="#ff3da8"/><path d="m471.03125.5h-386.304688c-22.589843 0-40.96875 18.378906-40.96875 40.96875v293.046875c0 22.59375 18.378907 40.972656 40.96875 40.972656h386.304688c22.589844 0 40.96875-18.378906 40.96875-40.972656v-293.046875c0-22.589844-18.378906-40.96875-40.96875-40.96875zm0 0" fill="#dce1eb"/><path d="m471.03125.5h-193.152344v374.984375h193.152344c22.589844 0 40.96875-18.375 40.96875-40.96875v-293.046875c0-22.589844-18.378906-40.96875-40.96875-40.96875zm0 0" fill="#bec3d2"/><g fill="#555a66"><path d="m112.402344 331.914062c-8.394532 0-15.203125-6.808593-15.203125-15.203124v-255.402344c0-8.394532 6.808593-15.203125 15.203125-15.203125 8.398437 0 15.203125 6.808593 15.203125 15.203125v255.402344c0 8.394531-6.804688 15.203124-15.203125 15.203124zm0 0"/><path d="m167.5625 331.914062c-8.398438 0-15.203125-6.808593-15.203125-15.203124v-255.402344c0-8.394532 6.804687-15.203125 15.203125-15.203125 8.394531 0 15.203125 6.808593 15.203125 15.203125v255.402344c0 8.394531-6.808594 15.203124-15.203125 15.203124zm0 0"/><path d="m222.71875 331.914062c-8.394531 0-15.199219-6.808593-15.199219-15.203124v-255.402344c0-8.394532 6.804688-15.203125 15.199219-15.203125 8.398438 0 15.203125 6.808593 15.203125 15.203125v255.402344c0 8.394531-6.804687 15.203124-15.203125 15.203124zm0 0"/><path d="m277.878906 331.914062c-8.398437 0-15.203125-6.808593-15.203125-15.203124v-255.402344c0-8.394532 6.804688-15.203125 15.203125-15.203125 8.394532 0 15.203125 6.808593 15.203125 15.203125v255.402344c0 8.394531-6.808593 15.203124-15.203125 15.203124zm0 0"/></g><path d="m333.035156 331.914062c-8.394531 0-15.199218-6.808593-15.199218-15.203124v-255.402344c0-8.394532 6.804687-15.203125 15.199218-15.203125 8.398438 0 15.203125 6.808593 15.203125 15.203125v255.402344c0 8.394531-6.804687 15.203124-15.203125 15.203124zm0 0" fill="#23272b"/><path d="m388.195312 331.914062c-8.394531 0-15.203124-6.808593-15.203124-15.203124v-255.402344c0-8.394532 6.808593-15.203125 15.203124-15.203125 8.394532 0 15.203126 6.808593 15.203126 15.203125v255.402344c0 8.394531-6.808594 15.203124-15.203126 15.203124zm0 0" fill="#23272b"/><path d="m443.355469 331.914062c-8.398438 0-15.203125-6.808593-15.203125-15.203124v-255.402344c0-8.394532 6.804687-15.203125 15.203125-15.203125 8.394531 0 15.199219 6.808593 15.199219 15.203125v255.402344c0 8.394531-6.804688 15.203124-15.199219 15.203124zm0 0" fill="#23272b"/><path d="m293.082031 316.710938v-255.402344c0-8.394532-6.808593-15.203125-15.203125-15.203125v285.808593c8.394532 0 15.203125-6.808593 15.203125-15.203124zm0 0" fill="#23272b"/></svg>