<svg height="512pt" viewBox="-136 0 512 512" width="512pt" xmlns="http://www.w3.org/2000/svg"><path d="m120.257812 81.609375c-8.429687 0-15.265624-6.835937-15.265624-15.265625v-51.074219c0-8.433593 6.835937-15.269531 15.265624-15.269531 8.433594 0 15.269532 6.835938 15.269532 15.269531v51.074219c0 8.429688-6.835938 15.265625-15.269532 15.265625zm0 0" fill="#7e8596"/><path d="m135.527344 66.34375v-51.074219c0-8.433593-6.835938-15.269531-15.269532-15.269531v81.609375c8.433594 0 15.269532-6.835937 15.269532-15.265625zm0 0" fill="#555a66"/><path d="m240.195312 493.609375-86.804687-415.609375c-3.257813-15.601562-17.191406-26.925781-33.132813-26.925781-15.9375 0-29.875 11.324219-33.132812 26.929687l-86.800781 415.605469c-.941407 4.5.195312 9.183594 3.09375 12.75 2.902343 3.570313 7.253906 5.640625 11.851562 5.640625h209.976563c4.597656 0 8.949218-2.070312 11.851562-5.640625 2.898438-3.566406 4.035156-8.25 3.097656-12.75zm-64.910156-111.152344-55.027344 33.164063-55.023437-33.164063 55.03125-44.75zm-30.820312-64.429687 23.816406-19.371094 9.746094 46.671875zm-81.980469 27.304687 9.753906-46.691406 23.828125 19.382813zm-13.191406 63.171875 41.390625 24.945313-53.3125 32.132812zm70.964843 42.773438 50.085938 30.1875h-100.167969zm29.578126-17.828125 41.386718-24.945313 11.921875 57.078125zm-32.820313-349.203125c.320313-1.527344 1.683594-2.636719 3.242187-2.636719 1.5625 0 2.925782 1.109375 3.242188 2.636719l37.753906 180.765625-40.988281 33.332031-41-33.347656zm0 0" fill="#555a66"/><path d="m123.5 84.246094 37.753906 180.765625-40.988281 33.332031-.007813-.003906v39.371094l.003907-.003907 55.019531 44.75-55.023438 33.164063v35.65625l50.082032 30.1875h-50.082032v30.535156h104.988282c4.597656 0 8.949218-2.070312 11.851562-5.640625 2.898438-3.566406 4.035156-8.25 3.09375-12.75l-86.800781-415.609375c-3.257813-15.601562-17.191406-26.925781-33.132813-26.925781v30.535156c1.5625 0 2.925782 1.109375 3.242188 2.636719zm79.644531 381.335937-53.3125-32.132812 41.390625-24.949219zm-25.117187-120.253906-33.5625-27.300781 23.816406-19.371094zm0 0" fill="#23272b"/><path d="m200.976562 160.972656h-161.4375c-8.433593 0-15.269531-6.835937-15.269531-15.265625 0-8.433593 6.835938-15.269531 15.269531-15.269531h161.4375c8.433594 0 15.269532 6.835938 15.269532 15.269531 0 8.429688-6.835938 15.265625-15.269532 15.265625zm0 0" fill="#7e8596"/><path d="m225.246094 272.328125c-8.429688 0-15.265625-6.835937-15.265625-15.269531v-21.851563h-179.445313v20.917969c0 8.429688-6.835937 15.265625-15.265625 15.265625-8.433593 0-15.269531-6.835937-15.269531-15.265625v-36.1875c0-8.433594 6.835938-15.269531 15.269531-15.269531h209.976563c8.433594 0 15.269531 6.835937 15.269531 15.269531v37.121094c0 8.433594-6.835937 15.269531-15.269531 15.269531zm0 0" fill="#7e8596"/><g fill="#555a66"><path d="m200.976562 130.4375h-80.71875v30.535156h80.71875c8.433594 0 15.269532-6.835937 15.269532-15.265625 0-8.433593-6.835938-15.269531-15.269532-15.269531zm0 0"/><path d="m225.246094 204.667969h-104.988282v30.539062h89.722657v21.851563c0 8.433594 6.835937 15.269531 15.265625 15.269531 8.433594 0 15.269531-6.835937 15.269531-15.269531v-37.121094c0-8.433594-6.835937-15.269531-15.269531-15.269531zm0 0"/></g></svg>