<svg height="512pt" viewBox="-16 0 512 512" width="512pt" xmlns="http://www.w3.org/2000/svg"><path d="m465.324219 279.5625h-125.484375c-4.820313 0-9.355469-2.292969-12.214844-6.171875-2.863281-3.882813-3.707031-8.894531-2.28125-13.5l62.742188-202.421875c1.96875-6.351562 7.847656-10.683594 14.496093-10.683594 6.652344 0 12.53125 4.332032 14.5 10.683594l62.742188 202.421875c1.425781 4.605469.582031 9.617187-2.28125 13.5-2.859375 3.878906-7.394531 6.171875-12.21875 6.171875zm-104.886719-30.355469h84.292969l-42.148438-135.976562zm0 0" fill="#fff04a"/><path d="m402.582031 349.671875c-42.964843 0-77.917969-34.953125-77.917969-77.917969v-7.367187c0-8.382813 6.792969-15.179688 15.175782-15.179688h125.484375c8.382812 0 15.179687 6.796875 15.179687 15.179688v7.367187c0 42.964844-34.957031 77.917969-77.921875 77.917969zm0 0" fill="#ff3da8"/><path d="m140.660156 279.5625h-125.480468c-4.824219 0-9.359376-2.292969-12.21875-6.171875-2.8632818-3.882813-3.707032-8.894531-2.28125-13.5l62.742187-202.417969c1.96875-6.355468 7.84375-10.6875 14.496094-10.6875 6.652343 0 12.527343 4.332032 14.5 10.683594l62.742187 202.425781c1.425782 4.605469.582032 9.613281-2.28125 13.496094-2.859375 3.878906-7.394531 6.171875-12.21875 6.171875zm-104.886718-30.355469h84.292968l-42.148437-135.976562zm0 0" fill="#fff8ab"/><path d="m77.917969 349.671875c-42.964844 0-77.917969-34.953125-77.917969-77.917969v-7.367187c0-8.382813 6.796875-15.179688 15.179688-15.179688h125.480468c8.382813 0 15.179688 6.796875 15.179688 15.179688v7.367187c0 42.964844-34.957032 77.917969-77.921875 77.917969zm0 0" fill="#ff7d81"/><path d="m402.582031 77.140625h-324.664062c-8.382813 0-15.175781-6.792969-15.175781-15.175781 0-8.382813 6.792968-15.179688 15.175781-15.179688h324.664062c8.382813 0 15.179688 6.796875 15.179688 15.179688 0 8.382812-6.796875 15.175781-15.179688 15.175781zm0 0" fill="#afb4c8"/><path d="m402.582031 46.785156h-162.332031v30.355469h162.332031c8.382813 0 15.179688-6.792969 15.179688-15.175781 0-8.382813-6.796875-15.179688-15.179688-15.179688zm0 0" fill="#7e8596"/><path d="m270.277344 464.421875h-60.058594c-8.382812 0-15.179688-6.796875-15.179688-15.179687v-404.035157c0-24.925781 20.28125-45.207031 45.207032-45.207031 24.929687 0 45.210937 20.28125 45.210937 45.207031v404.035157c0 8.382812-6.796875 15.179687-15.179687 15.179687zm0 0" fill="#555a66"/><path d="m240.25 0v464.421875h30.027344c8.382812 0 15.179687-6.796875 15.179687-15.179687v-404.035157c0-24.925781-20.28125-45.207031-45.207031-45.207031zm0 0" fill="#23272b"/><path d="m402.582031 512h-324.664062c-8.382813 0-15.175781-6.796875-15.175781-15.179688 0-34.601562 28.152343-62.753906 62.753906-62.753906h229.507812c34.605469 0 62.753906 28.152344 62.753906 62.753906.003907 8.382813-6.792968 15.179688-15.175781 15.179688zm0 0" fill="#ff7d81"/><path d="m355.003906 434.066406h-114.753906v77.933594h162.332031c8.382813 0 15.179688-6.796875 15.179688-15.179688 0-34.601562-28.152344-62.753906-62.757813-62.753906zm0 0" fill="#ff3da8"/></svg>