<svg height="512pt" viewBox="-70 0 512 512" width="512pt" xmlns="http://www.w3.org/2000/svg"><path d="m302.496094 409.757812h-233.347656c-8.429688 0-15.269532-6.835937-15.269532-15.269531v-192.417969c0-50.242187 40.878906-91.117187 91.121094-91.117187h81.648438c50.242187 0 91.117187 40.875 91.117187 91.117187v192.417969c0 8.433594-6.835937 15.269531-15.269531 15.269531zm0 0" fill="#fff8ab"/><path d="m226.644531 110.953125h-41.835937v298.804687h117.6875c8.433594 0 15.269531-6.835937 15.269531-15.269531v-192.417969c0-50.242187-40.875-91.117187-91.121094-91.117187zm0 0" fill="#fff04a"/><path d="m170.554688 282.675781h30.535156v111.8125h-30.535156zm0 0" fill="#afb4c8"/><path d="m184.808594 282.675781h16.28125v111.8125h-16.28125zm0 0" fill="#7e8596"/><path d="m185.824219 297.945312c-31.382813 0-56.914063-25.53125-56.914063-56.914062 0-31.378906 25.53125-56.910156 56.914063-56.910156 31.378906 0 56.910156 25.53125 56.910156 56.910156 0 31.382812-25.53125 56.914062-56.910156 56.914062zm0 0" fill="#ff7d81"/><path d="m185.824219 184.121094c-.339844 0-.675781.019531-1.015625.027344v113.769531c.339844.007812.675781.027343 1.015625.027343 31.378906 0 56.910156-25.53125 56.910156-56.914062 0-31.378906-25.53125-56.910156-56.910156-56.910156zm0 0" fill="#ff3da8"/><path d="m329.386719 461.785156h-287.128907c-8.429687 0-15.269531-6.835937-15.269531-15.269531v-51.015625c0-8.433594 6.839844-15.269531 15.269531-15.269531h287.128907c8.433593 0 15.269531 6.835937 15.269531 15.269531v51.015625c0 8.433594-6.835938 15.269531-15.269531 15.269531zm0 0" fill="#ff7d81"/><path d="m329.386719 380.230469h-144.578125v81.554687h144.578125c8.433593 0 15.269531-6.835937 15.269531-15.269531v-51.015625c0-8.433594-6.835938-15.269531-15.269531-15.269531zm0 0" fill="#ff3da8"/><path d="m356.378906 512h-341.109375c-8.433593 0-15.269531-6.835938-15.269531-15.269531v-50.214844c0-8.433594 6.835938-15.269531 15.269531-15.269531h341.109375c8.429688 0 15.265625 6.835937 15.265625 15.269531v50.214844c0 8.433593-6.835937 15.269531-15.265625 15.269531zm0 0" fill="#555a66"/><path d="m356.378906 431.246094h-171.570312v80.753906h171.570312c8.429688 0 15.265625-6.835938 15.265625-15.269531v-50.214844c0-8.433594-6.835937-15.269531-15.265625-15.269531zm0 0" fill="#23272b"/><g fill="#38ebff"><path d="m185.824219 70.238281c-8.433594 0-15.269531-6.835937-15.269531-15.269531v-39.699219c0-8.433593 6.835937-15.269531 15.269531-15.269531 8.429687 0 15.265625 6.835938 15.265625 15.269531v39.699219c0 8.433594-6.835938 15.269531-15.265625 15.269531zm0 0"/><path d="m118.703125 82.078125c-6.234375 0-12.089844-3.851563-14.347656-10.050781l-13.578125-37.308594c-2.882813-7.921875 1.203125-16.683594 9.125-19.570312 7.921875-2.882813 16.683594 1.203124 19.570312 9.128906l13.578125 37.304687c2.882813 7.925781-1.199219 16.6875-9.125 19.570313-1.722656.628906-3.488281.925781-5.222656.925781zm0 0"/><path d="m59.6875 116.148438c-4.355469 0-8.683594-1.851563-11.703125-5.453126l-25.519531-30.414062c-5.417969-6.457031-4.578125-16.089844 1.882812-21.507812 6.457032-5.421876 16.089844-4.578126 21.511719 1.882812l25.519531 30.410156c5.417969 6.460938 4.578125 16.09375-1.882812 21.511719-2.859375 2.398437-6.34375 3.570313-9.808594 3.570313zm0 0"/><path d="m311.957031 116.148438c-3.460937 0-6.945312-1.171876-9.804687-3.570313-6.460938-5.421875-7.304688-15.050781-1.882813-21.511719l25.519531-30.414062c5.417969-6.460938 15.046876-7.300782 21.507813-1.878906 6.460937 5.417968 7.304687 15.046874 1.882813 21.507812l-25.519532 30.414062c-3.019531 3.601563-7.347656 5.453126-11.703125 5.453126zm0 0"/><path d="m252.941406 82.078125c-1.734375 0-3.5-.296875-5.222656-.925781-7.921875-2.882813-12.007812-11.644532-9.125-19.570313l13.578125-37.304687c2.882813-7.925782 11.644531-12.011719 19.570313-9.128906 7.921874 2.886718 12.007812 11.648437 9.125 19.570312l-13.578126 37.308594c-2.257812 6.199218-8.113281 10.050781-14.347656 10.050781zm0 0"/></g></svg>