<svg height="512pt" viewBox="-19 0 512 512" width="512pt" xmlns="http://www.w3.org/2000/svg"><path d="m470.945312 299.265625-58.195312-75.28125c-2.863281-3.703125-7.28125-5.871094-11.960938-5.871094-4.679687 0-9.097656 2.167969-11.960937 5.875l-58.183594 75.277344c-3.523437 4.5625-4.148437 10.730469-1.609375 15.90625 2.542969 5.175781 7.804688 8.457031 13.570313 8.457031h17.53125c-5.765625 47.386719-38.304688 87.203125-83.335938 102.371094v-239.410156c15.09375-6.789063 28.480469-17.457032 38.433594-30.78125 12.664063-16.953125 19.359375-37.101563 19.359375-58.265625 0-53.785157-43.757812-97.542969-97.542969-97.542969-53.785156 0-97.542969 43.757812-97.542969 97.542969 0 21.164062 6.695313 41.3125 19.359376 58.265625 9.953124 13.324218 23.339843 23.992187 38.433593 30.78125v239.410156c-45.03125-15.167969-77.570312-54.984375-83.335937-102.371094h17.53125c5.765625 0 11.027344-3.28125 13.570312-8.457031 2.542969-5.175781 1.917969-11.34375-1.609375-15.90625l-58.183593-75.277344c-2.863282-3.707031-7.277344-5.875-11.960938-5.875-4.679688 0-9.097656 2.167969-11.960938 5.871094l-58.195312 75.28125c-3.523438 4.558594-4.148438 10.730469-1.609375 15.90625s7.804687 8.457031 13.570313 8.457031h19c7.753906 105.175782 95.8125 188.371094 202.933593 188.371094 107.121094 0 195.179688-83.195312 202.933594-188.371094h19c5.765625 0 11.03125-3.28125 13.570313-8.457031 2.542968-5.175781 1.917968-11.347656-1.609376-15.90625zm-233.894531-229.945313c15.5625 0 28.21875 12.660157 28.21875 28.222657 0 15.558593-12.65625 28.21875-28.21875 28.21875-15.558593 0-28.21875-12.660157-28.21875-28.21875 0-15.5625 12.660157-28.222657 28.21875-28.222657zm0 0" fill="#dce1eb"/><path d="m265.269531 97.542969c0 15.558593-12.65625 28.21875-28.21875 28.21875v386.238281c107.121094 0 195.179688-83.195312 202.933594-188.371094h19c5.765625 0 11.03125-3.28125 13.570313-8.457031 2.542968-5.175781 1.917968-11.347656-1.609376-15.90625l-58.195312-75.28125c-2.863281-3.703125-7.28125-5.871094-11.960938-5.871094-4.679687 0-9.097656 2.167969-11.960937 5.875l-58.183594 75.277344c-3.523437 4.5625-4.148437 10.730469-1.609375 15.90625 2.542969 5.175781 7.804688 8.457031 13.570313 8.457031h17.53125c-5.765625 47.386719-38.304688 87.203125-83.335938 102.371094v-239.410156c15.09375-6.789063 28.480469-17.457032 38.433594-30.78125 12.664063-16.953125 19.359375-37.101563 19.359375-58.265625 0-53.785157-43.757812-97.542969-97.542969-97.542969v69.320312c15.5625 0 28.21875 12.660157 28.21875 28.222657zm0 0" fill="#bec3d2"/><path d="m283.359375 240.414062h-92.617187c-8.347657 0-15.117188-6.769531-15.117188-15.117187 0-8.351563 6.769531-15.121094 15.117188-15.121094h92.617187c8.347656 0 15.117187 6.769531 15.117187 15.121094 0 8.347656-6.769531 15.117187-15.117187 15.117187zm0 0" fill="#555a66"/><path d="m283.359375 210.175781h-46.308594v30.238281h46.308594c8.347656 0 15.117187-6.769531 15.117187-15.117187 0-8.351563-6.769531-15.121094-15.117187-15.121094zm0 0" fill="#23272b"/></svg>