<svg height="512pt" viewBox="-1 0 512 512" width="512pt" xmlns="http://www.w3.org/2000/svg"><path d="m262.019531 512c-95.796875 0-173.738281-77.9375-173.738281-173.734375v-68.890625c0-8.410156 6.820312-15.226562 15.230469-15.226562 8.410156 0 15.226562 6.816406 15.226562 15.226562v68.890625c0 79.003906 64.277344 143.277344 143.28125 143.277344 79.003907 0 143.28125-64.273438 143.28125-143.277344v-173.894531c0-8.410156 6.816407-15.230469 15.226563-15.230469s15.230468 6.820313 15.230468 15.230469v173.894531c0 95.796875-77.9375 173.734375-173.738281 173.734375zm0 0" fill="#555a66"/><path d="m435.757812 338.265625v-173.894531c0-8.410156-6.820312-15.230469-15.230468-15.230469s-15.226563 6.820313-15.226563 15.230469v173.894531c0 79.003906-64.277343 143.277344-143.28125 143.277344v30.457031c95.800781 0 173.738281-77.9375 173.738281-173.734375zm0 0" fill="#23272b"/><path d="m103.511719 284.605469c-57.078125 0-103.511719-46.433594-103.511719-103.511719v-165.863281c0-8.414063 6.816406-15.230469 15.230469-15.230469h42.800781c8.410156 0 15.230469 6.816406 15.230469 15.230469 0 8.410156-6.820313 15.226562-15.230469 15.226562h-27.574219v150.636719c0 40.28125 32.773438 73.054688 73.054688 73.054688s73.054687-32.773438 73.054687-73.054688v-150.636719h-27.574218c-8.410157 0-15.230469-6.816406-15.230469-15.226562 0-8.414063 6.820312-15.230469 15.230469-15.230469h42.800781c8.410156 0 15.230469 6.816406 15.230469 15.230469v165.863281c0 57.078125-46.4375 103.511719-103.511719 103.511719zm0 0" fill="#dce1eb"/><path d="m420.527344 179.597656c-49.515625 0-89.800782-40.285156-89.800782-89.796875 0-49.515625 40.285157-89.800781 89.800782-89.800781s89.800781 40.285156 89.800781 89.800781c0 49.511719-40.285156 89.796875-89.800781 89.796875zm0 0" fill="#fff8ab"/><path d="m420.527344 0v179.597656c49.515625 0 89.800781-40.285156 89.800781-89.796875 0-49.515625-40.285156-89.800781-89.800781-89.800781zm0 0" fill="#fff04a"/><path d="m420.527344 133.589844c-24.144532 0-43.789063-19.644532-43.789063-43.789063 0-24.148437 19.644531-43.792969 43.789063-43.792969 24.144531 0 43.789062 19.644532 43.789062 43.792969 0 24.144531-19.644531 43.789063-43.789062 43.789063zm0 0" fill="#ff7d81"/><path d="m420.527344 46.007812v87.582032c24.144531 0 43.789062-19.644532 43.789062-43.789063 0-24.148437-19.644531-43.792969-43.789062-43.792969zm0 0" fill="#ff3da8"/></svg>