<svg height="512pt" viewBox="-60 0 512 512" width="512pt" xmlns="http://www.w3.org/2000/svg"><path d="m313.210938 236.238281h-87.386719c-8.398438 0-15.207031-6.808593-15.207031-15.207031s6.808593-15.207031 15.207031-15.207031h87.386719c8.398437 0 15.207031 6.808593 15.207031 15.207031s-6.808594 15.207031-15.207031 15.207031zm0 0" fill="#ffb89c"/><path d="m377.3125 425.078125c-5.519531 0-10.84375-3.011719-13.539062-8.257813l-43.582032-84.800781h-94.363281c-8.402344 0-15.210937-6.808593-15.210937-15.210937 0-8.398438 6.808593-15.207032 15.210937-15.207032h103.644531c5.699219 0 10.921875 3.1875 13.527344 8.257813l47.828125 93.054687c3.835937 7.472657.894531 16.640626-6.574219 20.480469-2.226562 1.144531-4.601562 1.683594-6.941406 1.683594zm0 0" fill="#0160ad"/><path d="m241.035156 332.019531h-43.558594c-27.464843 0-49.730468-22.265625-49.730468-49.734375v-113.203125c0-25.539062 20.207031-46.929687 45.742187-47.414062 26.128907-.496094 47.546875 20.613281 47.546875 46.632812zm0 0" fill="#fff8ab"/><path d="m194.390625 103.710938c-28.59375 0-51.855469-23.261719-51.855469-51.855469s23.261719-51.855469 51.855469-51.855469 51.855469 23.261719 51.855469 51.855469-23.261719 51.855469-51.855469 51.855469zm0 0" fill="#ffcdbe"/><path d="m155.484375 512c-85.734375 0-155.484375-69.75-155.484375-155.484375 0-32.480469 9.914062-63.597656 28.675781-89.988281 18.339844-25.800782 43.679688-45.179688 73.28125-56.03125 7.886719-2.890625 16.621094 1.15625 19.511719 9.042968 2.890625 7.886719-1.15625 16.621094-9.042969 19.511719-49.050781 17.988281-82.011719 65.195313-82.011719 117.464844 0 68.964844 56.105469 125.070313 125.070313 125.070313 63.9375 0 117.386719-47.851563 124.320313-111.308594.914062-8.351563 8.417968-14.378906 16.769531-13.464844 8.351562.914062 14.378906 8.421875 13.464843 16.769531-4.136718 37.847657-22.042968 72.792969-50.425781 98.402344-28.601562 25.804687-65.582031 40.015625-104.128906 40.015625zm0 0" fill="#555a66"/><path d="m296.574219 356.8125c-8.355469-.914062-15.855469 5.113281-16.769531 13.464844-5.390626 49.320312-38.878907 89.207031-83.550782 104.535156v20.964844h28.414063c12.570312-6.246094 24.335937-14.21875 34.945312-23.792969 28.382813-25.609375 46.289063-60.554687 50.425781-98.402344.914063-8.351562-5.113281-15.859375-13.464843-16.769531zm0 0" fill="#23272b"/><path d="m196.253906 121.703125v210.285156c.40625.007813.8125.03125 1.222656.03125h43.558594v-163.71875c0-25.09375-19.921875-45.617187-44.78125-46.597656zm0 0" fill="#fff04a"/><path d="m196.253906.046875v103.617187c27.730469-.984374 49.992188-23.839843 49.992188-51.808593s-22.261719-50.824219-49.992188-51.808594zm0 0" fill="#ffb89c"/></svg>