<svg height="512pt" viewBox="-67 0 512 512" width="512pt" xmlns="http://www.w3.org/2000/svg"><path d="m335.179688 512h-292.097657c-8.433593 0-15.269531-6.835938-15.269531-15.269531v-359.066407c0-8.429687 6.835938-15.265624 15.269531-15.265624h292.097657c8.433593 0 15.269531 6.835937 15.269531 15.265624v359.066407c0 8.433593-6.835938 15.269531-15.269531 15.269531zm0 0" fill="#fff8ab"/><path d="m335.179688 122.398438h-146.050782v389.601562h146.050782c8.433593 0 15.269531-6.835938 15.269531-15.269531v-359.066407c0-8.429687-6.835938-15.265624-15.269531-15.265624zm0 0" fill="#fff04a"/><path d="m169.402344 243.609375c-3.894532-7.476563-13.113282-10.382813-20.59375-6.488281-25.019532 13.03125-42.054688 36.636718-46.820313 63.742187-5.921875-3.886719-13.953125-3.226562-19.160156 1.980469-5.960937 5.960938-5.960937 15.628906 0 21.589844l22.351563 22.351562c2.980468 2.980469 6.890624 4.472656 10.796874 4.472656s7.8125-1.492187 10.792969-4.472656l22.351563-22.351562c5.964844-5.960938 5.964844-15.628906 0-21.59375-4.152344-4.152344-10.097656-5.402344-15.339844-3.773438 4.566406-14.8125 14.882812-27.441406 29.132812-34.859375 7.476563-3.898437 10.382813-13.117187 6.488282-20.597656zm0 0" fill="#555a66"/><path d="m247.464844 357.003906-30.53125-8.179687c-8.148438-2.183594-16.519532 2.652343-18.699219 10.796875-1.4375 5.359375.179687 10.808594 3.765625 14.535156-3.902344.808594-7.894531 1.226562-11.929688 1.226562-11.25 0-22.199218-3.199218-31.660156-9.246093-7.105468-4.542969-16.546875-2.464844-21.089844 4.640625-4.539062 7.105468-2.460937 16.546875 4.644532 21.089844 14.378906 9.191406 31.015625 14.050781 48.105468 14.050781 10.332032 0 20.492188-1.785157 30.09375-5.222657-.777343 7.34375 3.859376 14.363282 11.214844 16.335938 1.324219.355469 2.652344.523438 3.964844.523438 6.738281 0 12.910156-4.496094 14.734375-11.320313l8.183594-30.53125c2.179687-8.140625-2.652344-16.515625-10.796875-18.699219zm0 0" fill="#555a66"/><path d="m248.433594 248.699219c6.128906-3.265625 9.4375-10.414063 7.5625-17.410157-2.183594-8.144531-10.550782-12.984374-18.699219-10.796874l-30.53125 8.179687c-3.910156 1.050781-7.246094 3.609375-9.269531 7.117187-2.027344 3.503907-2.574219 7.671876-1.527344 11.585938l8.179688 30.527344c1.828124 6.824218 7.996093 11.324218 14.738281 11.324218 1.308593 0 2.636719-.171874 3.960937-.527343 5.761719-1.542969 9.851563-6.1875 10.988282-11.652344 9.601562 10.632813 15.136718 24.570313 15.136718 39.429687 0 .726563-.019531 1.53125-.066406 2.605469-.371094 8.425781 6.160156 15.554688 14.585938 15.925781.226562.007813.453124.015626.679687.015626 8.125 0 14.882813-6.40625 15.242187-14.601563.042969-.953125.097657-2.402344.097657-3.945313 0-26.464843-11.550781-51.007812-31.078125-67.777343zm0 0" fill="#23272b"/><path d="m247.464844 357.003906-30.53125-8.179687c-8.148438-2.183594-16.519532 2.652343-18.699219 10.796875-1.4375 5.359375.179687 10.808594 3.765625 14.535156-3.902344.808594-7.894531 1.226562-11.929688 1.226562-.316406 0-.628906-.011718-.941406-.019531v30.539063c.3125.003906.625.015625.941406.015625 10.332032 0 20.492188-1.785157 30.09375-5.222657-.777343 7.34375 3.859376 14.363282 11.214844 16.335938 1.324219.355469 2.652344.523438 3.964844.523438 6.738281 0 12.910156-4.496094 14.734375-11.320313l8.183594-30.53125c2.179687-8.140625-2.652344-16.515625-10.796875-18.699219zm0 0" fill="#23272b"/><path d="m239.539062 83.394531h-100.820312c-8.429688 0-15.265625-6.835937-15.265625-15.269531v-52.855469c0-8.433593 6.835937-15.269531 15.265625-15.269531h100.820312c8.433594 0 15.269532 6.835938 15.269532 15.269531v52.855469c0 8.433594-6.835938 15.269531-15.269532 15.269531zm0 0" fill="#afb4c8"/><path d="m239.539062 0h-50.414062v83.394531h50.414062c8.433594 0 15.269532-6.835937 15.269532-15.269531v-52.855469c0-8.433593-6.835938-15.269531-15.269532-15.269531zm0 0" fill="#7e8596"/><path d="m362.992188 152.933594h-347.722657c-8.433593 0-15.269531-6.835938-15.269531-15.269532v-69.320312c0-8.429688 6.835938-15.269531 15.269531-15.269531h347.722657c8.433593 0 15.269531 6.839843 15.269531 15.269531v69.320312c0 8.433594-6.835938 15.269532-15.269531 15.269532zm0 0" fill="#555a66"/><path d="m362.992188 53.074219h-173.863282v99.859375h173.863282c8.433593 0 15.269531-6.835938 15.269531-15.269532v-69.320312c0-8.433594-6.835938-15.269531-15.269531-15.269531zm0 0" fill="#23272b"/></svg>