<svg height="512pt" viewBox="0 -24 512.00101 512" width="512pt" xmlns="http://www.w3.org/2000/svg"><path d="m320.148438 343.207031h-65.207032c-8.390625 0-15.195312-6.804687-15.195312-15.199219v-154.027343c0-26.359375 21.441406-47.800781 47.800781-47.800781s47.800781 21.441406 47.800781 47.800781v154.027343c0 8.394532-6.804687 15.199219-15.199218 15.199219zm0 0" fill="#a5f6ff"/><path d="m287.546875 106.414062c-29.339844 0-53.207031-23.867187-53.207031-53.207031 0-29.339843 23.867187-53.207031 53.207031-53.207031 29.335937 0 53.207031 23.871094 53.207031 53.207031 0 29.339844-23.871094 53.207031-53.207031 53.207031zm0 0" fill="#ffcdbe"/><path d="m287.546875 0v106.414062c29.335937 0 53.207031-23.867187 53.207031-53.207031 0-29.339843-23.871094-53.207031-53.207031-53.207031zm0 0" fill="#ffb89c"/><path d="m287.546875 126.179688v217.027343h32.601563c8.394531 0 15.199218-6.804687 15.199218-15.199219v-154.027343c0-26.359375-21.441406-47.800781-47.800781-47.800781zm0 0" fill="#38ebff"/><path d="m496.800781 338.78125h-106.582031l-221.78125-196.289062c-2.78125-2.460938-6.363281-3.816407-10.074219-3.816407h-143.164062c-8.394531 0-15.199219 6.804688-15.199219 15.195313v94.976562c0 8.394532 6.804688 15.199219 15.199219 15.199219h85.550781l221.785156 196.285156c2.777344 2.460938 6.359375 3.820313 10.070313 3.820313h164.199219c8.390624 0 15.195312-6.804688 15.195312-15.199219v-94.976563c0-8.390624-6.804688-15.195312-15.199219-15.195312zm0 0" fill="#555a66"/><path d="m496.800781 338.78125h-106.582031l-102.671875-90.871094v181.460938l34.984375 30.964844c2.78125 2.457031 6.363281 3.816406 10.074219 3.816406h164.195312c8.394531 0 15.199219-6.804688 15.199219-15.199219v-94.976563c0-8.390624-6.804688-15.195312-15.199219-15.195312zm0 0" fill="#23272b"/></svg>